/* XPM */
static const char *diamond[] = {
/* columns rows colors chars-per-pixel */
"32 32 8 1 ",
"  c black",
". c #1F2632",
"X c #394758",
"o c #566C84",
"O c #8194A6",
"+ c #ABBCC7",
"@ c #DCE9EF",
"# c None",
/* pixels */
"################################",
"################################",
"################################",
"################################",
"################################",
"################################",
"###########           ##########",
"#########  @+@@@@@@@+@  ########",
"#######  oXO@@@@@@@@@+Oo  ######",
"###### OoXXOO++@@@OO++OO@o #####",
"##### O.XOo+O@@+OO+oXX+OX@o ####",
"#### o+X@+OX+.@@++O.oXo++o+O ###",
"#### XX@@O+oO..ooO..@+O+OooX ###",
"#### OoX..XooXXXXXoooX..XOXo ###",
"##### OooOoO@@+OOO+XXoXX+oo ####",
"###### Xo+XoO@@@+oXXOXo++O #####",
"####### ++o+OO+@@XXOooOoX ######",
"######## o+o+OXXoOOo+XXo #######",
"######### OXO+oXXOXo+XO ########",
"########## Oo+O.Xo..OO #########",
"########### XX+o.o.OX ##########",
"############ X@@OO+o ###########",
"############# O@O+o ############",
"############## O@O #############",
"############### o ##############",
"################ ###############",
"################################",
"################################",
"################################",
"################################",
"################################",
"################################"
};
