/* XPM */
static const char *diamondTrab[] = {
/* columns rows colors chars-per-pixel */
"32 32 119 2 ",
"   c #0D0C0A",
".  c #130F09",
"X  c #16120C",
"o  c #1B150C",
"O  c #1E180E",
"+  c #151411",
"@  c #191711",
"#  c #191917",
"$  c #141618",
"%  c #16191C",
"&  c #1A1B1A",
"*  c #231E14",
"=  c #171C20",
"-  c #1B1F22",
";  c #1E2022",
":  c #202325",
">  c #22272A",
",  c #252A2C",
"<  c #242A31",
"1  c #282E35",
"2  c #2C3239",
"3  c #343737",
"4  c #30373D",
"5  c #4B463E",
"6  c #323E4B",
"7  c #35404E",
"8  c #38404D",
"9  c #364252",
"0  c #3B4655",
"q  c #3E4956",
"w  c #3E4C5B",
"e  c #4C4740",
"r  c #4D4840",
"t  c #524E46",
"y  c #414A56",
"u  c #424F5E",
"i  c #4A555F",
"p  c #5F5B55",
"a  c #625D56",
"s  c #67635B",
"d  c #404F62",
"f  c #445364",
"g  c #495665",
"h  c #46566A",
"j  c #47586B",
"k  c #4B5A6B",
"l  c #4B5D71",
"z  c #4E6073",
"x  c #556475",
"c  c #586777",
"v  c #5A6977",
"b  c #54667A",
"n  c #576879",
"m  c #5C6B7B",
"M  c #716D67",
"N  c #606E7B",
"B  c #62707E",
"V  c #827F79",
"C  c #576B81",
"Z  c #5A6E82",
"A  c #5F7284",
"S  c #5F7389",
"D  c #637485",
"F  c #687582",
"G  c #6D7882",
"H  c #647689",
"J  c #64788D",
"K  c #6B7C8D",
"L  c #657A90",
"P  c #6A7E92",
"I  c #75828D",
"U  c #7E868A",
"Y  c #6E8193",
"T  c #738495",
"R  c #778896",
"E  c #758799",
"W  c #76889A",
"Q  c #7A8C9C",
"!  c #7C8EA0",
"~  c #7E91A2",
"^  c #82929F",
"/  c #8395A4",
"(  c #8999A6",
")  c #8698A9",
"_  c #899BAB",
"`  c #939DA2",
"'  c #909DA8",
"]  c #95A3AD",
"[  c #98A5AC",
"{  c #8EA1B0",
"}  c #93A5B3",
"|  c #96A8B6",
" . c #9CACB7",
".. c #9DADBB",
"X. c #A7B3BB",
"o. c #ACB7BC",
"O. c #A6B6C3",
"+. c #ACBAC3",
"@. c #ADBDC9",
"#. c #B0BBC0",
"$. c #B2C2CC",
"%. c #B8C6CF",
"&. c #BAC9D3",
"*. c #BACAD4",
"=. c #BCCBD5",
"-. c #C0CED7",
";. c #C1D0D9",
":. c #C5D2DA",
">. c #C7D6DF",
",. c #CBD9E1",
"<. c #CCDAE1",
"1. c #CDDCE3",
"2. c #CFDEE5",
"3. c #D1DFE6",
"4. c #D2E0E7",
"5. c #D7E5EB",
"6. c #DAE7EE",
"7. c #DBE8EF",
"8. c #DCE9EF",
/* pixels */
"V r r r r r r r r 5 5 5 5 r r r r r r r r r e 5 5 5 5 r r r r M ",
"a O O O O O O O O O o o o O O O O O O O O O O o o o O O O O O 5 ",
"a O O O O O O O O O o o o O O O O O O O O O O o o o O O O O O 5 ",
"a O O O O O O O O O o o o O O O O O O O O O O O o o O O O O O 5 ",
"a O O O O O O O O O O o o O O O O O O O O O O o o o o O O O O 5 ",
"a O O O O O O O O O O o o O O O O O O O O o o o O o o o O O O 5 ",
"a O O O O O O O O o X                       X O O O o o o O O 5 ",
"a O O O O O O O o   & U [ X.#.#.#.#.#.o.[ ` 3   X O O O o O O 5 ",
"a O O O O O o   + 6 w Q ;.5.6.8.8.7.6.6.2.$.R g -   X o o o O 5 ",
"a O O O O o # i k f f T } @.*.3.6.3.O.| O.O._ / ] v - X o o O 5 ",
"a O O O o # i u f H H _ } &.1.&...| | Y x v ( ) T } m - X o O 5 ",
"a O O o + w Q B ] O./ D ^ G +.,.@.../ g j k H } } ~ _ F : X O 5 ",
"a O O o   6 c  .:...} P Y q y D Y E f 8 '  ./ | _ L S g % . O 5 ",
"a O O o + k Z x g q k C Z f 0 w f k l x H x q 0 k H z f = . o 5 ",
"a O O O o > v Z b D Z W @.%. .! E W / x f l w u R P l < X X o 5 ",
"p o o o o o ; 9 Z ) m A { >.4.>.O.Y x f Z z n /  .R 2 + o o o 5 ",
"p o o o o O o ; I  .T ) _ } @.<.-.D f D J Z P P k 1 @ O O o X 5 ",
"a O o o o O O o , v ) ! { ) m v K T Y P / n k k > X O O o o X 5 ",
"a O O o o o o o X : N m W } H d f K n Z _ m x 2 + O o o o o o 5 ",
"a O O O O o o o o o > x P { Q w 0 z 9 7 K K 4 @ O O o o o o o 5 ",
"a O O O O O o o o O o ; 9 x ) D 9 h 0 x k < @ O O O O o o o O 5 ",
"a O O O O O o o O O O o $ q X.*.) Q / A , X O O O O o o o o O 5 ",
"a O O O O O o o O O O O o ; I =...} K 1 + O O O O o o o o O O 5 ",
"a O O O O o o o O O O O O o , I $.( 4 + O O O O o o o o o O O 5 ",
"a O O O o o o o O O O O O O o > k 4 @ O O O O o o o o o o O O 5 ",
"a O O o o o o O O O O O O O O o + + O O o o o o o O o o o O O 5 ",
"p o o o O O O O O O O O O O O O o O O o o o o O O O O o o o o 5 ",
"p o o o O O O O o O O O O O O O O O o o o o O O O O O O o o o 5 ",
"a O o o O O O o o o o O O O o o o o o o o o O O O O O o o o O 5 ",
"a O O O o o o o o o o o o o o o o o o o o o O O O o o o o O O 5 ",
"a O O O O o o o o o O o o o o o o o O O o o O O O o o o O O O 5 ",
"s * * * * * * * * * * * * * * * * * * * * * * * * * * * * * * t "
};
