/* XPM */
static const char *playerTrab[] = {
/* columns rows colors chars-per-pixel */
"32 32 178 2 ",
"   c #150E09",
".  c #1A0F0A",
"X  c #1B150C",
"o  c #1E180E",
"O  c #1A1715",
"+  c #1F1911",
"@  c #23140E",
"#  c #211F0A",
"$  c #231311",
"%  c #2C1412",
"&  c #221C13",
"*  c #2B1B16",
"=  c #241D19",
"-  c #2D1E1C",
";  c #331111",
":  c #321E14",
">  c #3E1917",
",  c #301B19",
"<  c #3C1C1B",
"1  c #2E260E",
"2  c #2F2E0E",
"3  c #363408",
"4  c #252016",
"5  c #2C2612",
"6  c #2E2C12",
"7  c #262219",
"8  c #2A241C",
"9  c #2D291E",
"0  c #362116",
"q  c #3C2712",
"w  c #33241C",
"e  c #3A221C",
"r  c #3F3512",
"t  c #3F3C14",
"y  c #37341E",
"u  c #2D2621",
"i  c #2E2921",
"p  c #2F2B28",
"a  c #352623",
"s  c #3B2524",
"d  c #322C23",
"f  c #3B2C24",
"g  c #332D2B",
"h  c #363323",
"j  c #3C3427",
"k  c #3C3924",
"l  c #36322A",
"z  c #3B342D",
"x  c #3F3C2A",
"c  c #353231",
"v  c #3B3634",
"b  c #3E3934",
"n  c #3F3C3C",
"m  c #421F1F",
"M  c #4B1C1C",
"N  c #413C04",
"B  c #44261C",
"V  c #4B231E",
"C  c #43281F",
"Z  c #512E1F",
"A  c #4A3916",
"S  c #59341E",
"D  c #4C2C23",
"F  c #462D2A",
"G  c #4D2D2A",
"H  c #562621",
"J  c #512F23",
"K  c #512C2B",
"L  c #4F3226",
"P  c #40322F",
"I  c #4F322D",
"U  c #573226",
"Y  c #5D3523",
"T  c #52372E",
"R  c #5F302C",
"E  c #453730",
"W  c #4D3532",
"Q  c #403A32",
"!  c #483D35",
"~  c #413D3C",
"^  c #503431",
"/  c #6A2F28",
"(  c #633626",
")  c #653A25",
"_  c #62312B",
"`  c #6C3028",
"'  c #653A28",
"]  c #6C3E29",
"[  c #444108",
"{  c #51430B",
"}  c #4C4811",
"|  c #4E4A18",
" . c #594615",
".. c #5C451B",
"X. c #524F19",
"o. c #5B4A1B",
"O. c #575416",
"+. c #5D5A12",
"@. c #5E5B18",
"#. c #6C4B1B",
"$. c #6A6607",
"%. c #736E0F",
"&. c #7C6A0C",
"*. c #7C7602",
"=. c #666214",
"-. c #666218",
";. c #6C6819",
":. c #77731B",
">. c #494624",
",. c #484526",
"<. c #47443E",
"1. c #6F402A",
"2. c #745320",
"3. c #795921",
"4. c #6C663C",
"5. c #444141",
"6. c #57534D",
"7. c #5A564F",
"8. c #5F5B54",
"9. c #6D6A64",
"0. c #7B7771",
"q. c #862E2E",
"w. c #81302F",
"e. c #8D3232",
"r. c #8B3E39",
"t. c #9E3836",
"y. c #B23D3D",
"u. c #807806",
"i. c #857D0D",
"p. c #837E19",
"a. c #88433D",
"s. c #804741",
"d. c #8E4740",
"f. c #8F4843",
"g. c #9A4C45",
"h. c #A5544C",
"j. c #AF5750",
"k. c #CE665D",
"l. c #878106",
"z. c #8F8405",
"x. c #9B8A0A",
"c. c #9D9602",
"v. c #A79F03",
"b. c #A39B0D",
"n. c #ACA305",
"m. c #B4A607",
"M. c #B5A40A",
"N. c #BBB302",
"B. c #868122",
"V. c #888322",
"C. c #8E8923",
"Z. c #938E26",
"A. c #908B2C",
"S. c #979225",
"D. c #ADA726",
"F. c #ADA72B",
"G. c #B0A92C",
"H. c #BDB621",
"J. c #B7B02D",
"K. c #BCB52A",
"L. c #C3BA02",
"P. c #C7BE0A",
"I. c #C7BE1D",
"U. c #C0B92F",
"Y. c #C3BC36",
"T. c #D0C606",
"R. c #D3CA07",
"E. c #DAD11F",
"W. c #CDC62E",
"Q. c #DDD522",
"!. c #C8C031",
"~. c #D6CE31",
"^. c #DBD333",
"/. c #9C974A",
"(. c #ACA744",
"). c #D6D056",
"_. c #F2EA46",
"`. c #95928D",
/* pixels */
"0.9.9.9.9.9.9.9.9.9.9.9.9.9.9.9.9.9.9.9.9.9.9.9.9.9.9.9.9.9.9.`.",
"d o o o o o o o o X X X o o o o o o o o o o o X X X o o o o o 7.",
"d o o o o o o o o X X X o o o o o o o o o o o X X o o o o o o 7.",
"d o o o o o o o o o X X o o o o & 9 d d & o o X X X o o o o o 7.",
"d o o o o o o o o o X X o & 9 d d x h h z 4 o X X X X X o o o 7.",
"d o o o o o o o o o X o 9 d k 6 6 A.(./.>.l o X o X X X o o o 7.",
"d o o o o o o o o o o 9 k t i.l.[ K._.).>.Q & o o o X X o o o 7.",
"d o o o o o o o o o 9 >.i.c.P.I.=.D.~.Y.X.k z 4 o o o X X o o 7.",
"d o o o o o o o X + k i.L.R.Q.^.F.:.-.;.Z.Z.>.l + o o X X X o 7.",
"d o o o o o o o o 9 >.v.T.E.W.!.U.S.V.C.J.G.t Q 4 o X X X X o 7.",
"d o o o o o o o + j %.N.T.H.:.+.+.@.@.@.@.O.2 7 d o X X X o o 7.",
"d o o o o o o + u l } b.n.$.$.*.*.p.B.B.B.B.:.6 z o X X X o o 7.",
"d o o o o o o & b ~ <.4.| # 3 N {  ...o.o.o.A 9 z & X X X X o 7.",
"d o o o o o o + i v g ~ c c g = _ w.q.q.r.a., l 7 o o X X X X 7.",
"d o o o o o o o & b G s = c 5.v G e.y.y.r.g.e b & o o o X X X 6.",
"i X X X o o o o + u W R $ = v 5.v m e.t./ _ * z & o o o X X X 6.",
"i X X X o o o o + u p * @ : = c n = H ` ( ( C Q & o o o X X X 6.",
"d o X X X o o + i z - $ : @   O v v L ( ] ] U ! 4 o o X X X X 6.",
"d o o X X X X + z s.g.a.< . 0 $ c ~ w U ] 1.' T z & o X X X X 7.",
"d o o o X X o 9 P h.k.j.< q Y J 8 c O B ) 1.) D Q & X X X X X 7.",
"d o o o o & 9 i - d.h.f.q &.#.Y * g 5 A ) ] U f z & X X X X o 7.",
"d o o o & i i & 0 I ^ F 1 z.#.( B r u.x.#.) J z 7 o X X X o o 7.",
"d o o o & p & 0 f l = = y i.#.) S &.m.M.#.) J Q + X X X X o o 7.",
"d o o + i g 0 f z 7 & i z ..S Y Z #.3.2.S Y T z o X X X o o o 7.",
"d o o & b E j l 7 o & g < M M V a < > > > B E 7 X X X X o o o 7.",
"d o o o 9 w 4 7 o o & g > M M % z a % ; ; $ z o X o X X X o o 7.",
"i X X X o o o X o o & v F K G u b b s s s 8 l + o o o X X X X 7.",
"i X X o o o o X X o & 9 8 w 8 7 7 9 = * & & 7 o o o o X X X X 6.",
"d o X X o o o X X X o o o o X X X X X X X o o o o o o X X X o 7.",
"d o o X X X X X X X X X X X X X X X X X X o o o o o X X X o o 7.",
"d o o o o X X X X X o X X X X X X o o o X X o o o X X X o o o 7.",
"l & & & & & & + & & & & & + + & & & & & & & & & & + & & & & & 8."
};
