/* XPM */
static const char *_[] = {
/* columns rows colors chars-per-pixel */
"64 64 2 1 ",
"  c #38002C",
". c #222A5C",
/* pixels */
"                                      ..                        ",
"                                      ..                        ",
"        ..                                                      ",
"        ..                                                      ",
"                                                                ",
"                                                                ",
"        ..                                                      ",
"        ..                                                      ",
"    ......                                            ........  ",
"    ......                                            ........  ",
"          ..                                        ..          ",
"          ..                                        ..          ",
"            ..                                    ..            ",
"            ..                                    ..            ",
"                              ..                ....            ",
"                              ..                ....            ",
"                            ..                    ..            ",
"                            ..                    ..            ",
"                  ..        ..                    ..            ",
"                  ..        ..                    ..            ",
"                    ..........                    ....          ",
"                    ..........                    ....          ",
"                    ..        ..                  ..            ",
"                    ..        ..                  ..            ",
"                    ..          ......                          ",
"                    ..          ......                          ",
"    ..                          ..                              ",
"    ..                          ..                              ",
"    ....                        ..                              ",
"    ....                        ..                              ",
"    ..                          ..                              ",
"    ..                          ..                              ",
"  ....                                                  ........",
"  ....                                                  ........",
"    ..                                            ..            ",
"    ..                                            ..            ",
"                    ..          ..              ..              ",
"                    ..          ..              ..              ",
"                    ................        ....                ",
"                    ................        ....                ",
"          ..      ..                          ..                ",
"          ..      ..                          ..                ",
"            ......                            ..                ",
"            ......                            ..                ",
"              ..                                                ",
"              ..                                                ",
"              ..                                                ",
"              ..                                                ",
"              ..                                                ",
"              ..                                                ",
"              ..                                                ",
"              ..                                                ",
"                ..                            ..                ",
"                ..                            ..                ",
"....                              ................          ....",
"....                              ................          ....",
"                                      ..                      ..",
"                                      ..                      ..",
"                                                                ",
"                                                                ",
"                                      ..                        ",
"                                      ..                        ",
"        ..                            ..                        ",
"        ..                            ..                        "
};
