/* XPM */
static const char *C[] = {
/* columns rows colors chars-per-pixel */
"62 62 180 2 ",
"   c #37032D",
".  c #38002C",
"X  c #350B2A",
"o  c #3F092B",
"O  c #331229",
"+  c #331A29",
"@  c #350532",
"#  c #340835",
"$  c #380932",
"%  c #310D3B",
"&  c #2F1734",
"*  c #2F113F",
"=  c #2C1D3C",
"-  c #33133B",
";  c #3C1D3C",
":  c #2F2527",
">  c #302728",
",  c #342A2A",
"<  c #3A2D2D",
"1  c #3D312F",
"2  c #3F3130",
"3  c #420D2B",
"4  c #46132B",
"5  c #48162B",
"6  c #4D1D2A",
"7  c #451D32",
"8  c #49252C",
"9  c #54252A",
"0  c #56292A",
"q  c #592C2A",
"w  c #48332F",
"e  c #55312B",
"r  c #5C312A",
"t  c #4C2937",
"y  c #40243D",
"u  c #552D34",
"i  c #433433",
"p  c #4D3632",
"a  c #4A3936",
"s  c #4F3D39",
"d  c #553B34",
"f  c #5B3E35",
"g  c #52353A",
"h  c #63352D",
"j  c #65382E",
"k  c #693D2E",
"l  c #623434",
"z  c #623F34",
"x  c #6B3D31",
"c  c #554134",
"v  c #5C4036",
"b  c #5E4638",
"n  c #5F4938",
"m  c #6C432D",
"M  c #70482E",
"N  c #634337",
"B  c #6E4333",
"V  c #6C463B",
"C  c #6B4A3B",
"Z  c #754535",
"A  c #754A32",
"S  c #794936",
"D  c #734A39",
"F  c #7C4C39",
"G  c #7F5236",
"H  c #795C36",
"J  c #7C523C",
"K  c #7D5A3F",
"L  c #6C6037",
"P  c #7D623E",
"I  c #2D1544",
"U  c #2C1847",
"Y  c #2A1B4B",
"T  c #311B44",
"R  c #272846",
"E  c #262849",
"W  c #302049",
"Q  c #262252",
"!  c #282B57",
"~  c #242658",
"^  c #222A5C",
"/  c #503841",
"(  c #6F4740",
")  c #714A40",
"_  c #7E5A41",
"`  c #814F3B",
"'  c #815437",
"]  c #84533B",
"[  c #8A563E",
"{  c #865A3A",
"}  c #8C5A3D",
"|  c #896436",
" . c #87653F",
".. c #90623E",
"X. c #947239",
"o. c #8F5C40",
"O. c #915E40",
"+. c #8C6742",
"@. c #8C6C42",
"#. c #966342",
"$. c #996643",
"%. c #966840",
"&. c #9C6B43",
"*. c #927244",
"=. c #9D7647",
"-. c #977842",
";. c #957752",
":. c #A06E45",
">. c #A47347",
",. c #A87746",
"<. c #A77945",
"1. c #AB7D47",
"2. c #A77648",
"3. c #A87748",
"4. c #A77848",
"5. c #AC7C49",
"6. c #AE8146",
"7. c #AE8149",
"8. c #B18446",
"9. c #B08A45",
"0. c #B3834B",
"q. c #B6884D",
"w. c #BB8C4E",
"e. c #B59644",
"r. c #BF914E",
"t. c #A28858",
"y. c #B59052",
"u. c #BFA545",
"i. c #B9A05F",
"p. c #AD9563",
"a. c #C3954E",
"s. c #C69A4E",
"d. c #CA9C4F",
"f. c #C69B50",
"g. c #CB9D50",
"h. c #C19A59",
"j. c #C5AC47",
"k. c #CAA14F",
"l. c #C8AD4B",
"z. c #CCB449",
"x. c #CEB84A",
"c. c #D2B74D",
"v. c #CEA251",
"b. c #CFAB51",
"n. c #D3A651",
"m. c #D5AB52",
"M. c #CAB454",
"N. c #D5B152",
"B. c #D9B353",
"V. c #D7B853",
"C. c #DCBC54",
"Z. c #C6B36C",
"A. c #CDBC6D",
"S. c #DEBE66",
"D. c #C8B772",
"F. c #CBBB77",
"G. c #CBBC7A",
"H. c #DFC254",
"J. c #E1C554",
"K. c #E4CB53",
"L. c #E7D252",
"P. c #E9D553",
"I. c #E9D454",
"U. c #EBDA52",
"Y. c #ECDB52",
"T. c #EDDE5C",
"R. c #D1C37E",
"E. c #E4D065",
"W. c #EEE062",
"Q. c #EFE265",
"!. c #F0E369",
"~. c #F2E773",
"^. c #F2E877",
"/. c #D6C981",
"(. c #E1D88A",
"). c #F4EC84",
"_. c #F5EE8A",
"`. c #F6F08F",
"'. c #F7F396",
"]. c #F8F49A",
/* pixels */
". . . . . . . . . . . . . . . . . . . . . . . . . . . . . . . . . . . . . ^ ^ . . . . . . . . . . . . . . . . . . . . . . . ",
". . . . . . . . . . . . . . . . . . . . . . . . . . . . . . . . . . . . . ~ ^ . . . . . . . . . . . . . . . . . . . . . . . ",
". . . . . . . # ^ Q . . . . . . . . . . . . . o 3 o . . . . . . . . . . . . . . . . . . . . . . . . . . . . . . . . . . . . ",
". . . . . . . # ~ Y . . . . . . . . . . . . . 5 D V o . . . . . . . . . . . . . . . . . . . . . . . . . . . . . . . . . . . ",
". . . . . . . . . . . . . . . . . . . . . . . 5 t.p.5 . . . . . . . . . . . . . . . . . . . . . . . . . . . . . . . . . . . ",
". . . . . . . . @ @ . . . . . . . . . . . . . 5 t.Z.V o . . . . . . . . . . . . . . . . . . . . . . . . . . . . . . . . . . ",
". . . . . . . # ^ Q . . . . . . . . . . . . o l e.^.F.( o . . . . . . . . . . . . . . . . . . . . . . . . . . . . . . . . . ",
". . . . # # # % ^ Q . . . . . . . . . . . . 4 { k.E._.F.( o . . . . . . . . . . . . . . . . . . . . . . . # # # # # # # @ . ",
". . . @ ^ ^ ^ ^ ^ Q . . . . . . . . . . . . 4 { w.N.^.].t.4 . . . . . . . . . . . . . . . . . . . . . . % ^ ^ ^ ^ ^ ^ ^ I . ",
". . . . Q Q Q Q Q Y # # . . . . . . . . . . 4 { w.N.Q._.G.) o . . . . . . . . . . . . . . . . . . . . # I Q Q Q Q Q Q Q % . ",
". . . . . . . . . # ^ Y . . . . . . . . . . 4 { w.m.P.Q._.G.) o . . . . . . . . . . . . . . . . . . % ! y . . . . . . . . . ",
". . . . . . . . . # Y Y % # . . . . . . . 3 x >.w.b.K.P.Q._.G.) o . . . . . . . . . . . . . . . @ % - t 0 . . . . . . . . . ",
". . . . . . . . . . . % ^ Y . . . . . . . 4 ' w.f.C.K.K.P.Q._.;.4 . . . . . . . . . . . . . . . # ^ W r 0 . . . . . . . . . ",
". . . . . . . . . . . # Y I . . . . . . . 4 ' w.b.K.K.J.K.P.Q.A.) o . . . . . . . . . . . . . % I ! g } 0 . . . . . . . . . ",
". . . . . . . . . . . . . . . . . . . . . 4 ' w.b.C.B.B.C.K.P.Q.M.B o . . . . . . . . . . . # ^ ! s e.5.0 . . . . . . . . . ",
". . . . . . . . . . . . . . . . . . . . 3 x <.f.N.m.n.n.m.C.L.Y.~.M.B o . . . . . . . . . . @ U g u.L.5.0 . . . . . . . . . ",
". . . . . . . . . . . . . . . . . . . . 4 ' w.v.V.n.N.m.n.V.K.P.W.T.| 3 . . . . . . . . . . . 0 D.P.k.5.0 . . . . . . . . . ",
". . . . . . . . . . . . . . . . . # I # 4 ' w.f.m.n.m.m.n.m.C.K.P.Y.z.B o . . . . . . . . . 0 F.Q.L.w.5.0 . . . . . . . . . ",
". . . . . . . . . . . . . . . . . I ^ I 4 ' w.a.n.n.n.n.n.n.V.J.J.P.Y.x.B o . . . . . . . 9 G.'.U.H.w.5.0 . . . . . . . . . ",
". . . . . . . . . . . . . . . . . # I ; B 5.f.m.n.n.n.n.n.n.V.K.K.P.Y.Y.H 3 . . . . . . 9 R.].W.K.C.w.5.0 . . . . . . . . . ",
". . . . . . . . . . . . . . . . . . . ; G w.f.m.B.B.n.n.n.B.H.L.K.J.P.C.a.x o . . . . . r ].W.K.J.K.w.5.0 . . . . . . . . . ",
". . . . . . . . . . . . . . . . . . . ; G w.a.n.m.m.n.n.B.H.K.K.J.b.n.m.n.A o . . . . 9 /.W.U.m.J.H.w.w.&.6 . . . . . . . . ",
". . . . . . . . . . . . . . . . . . . ; G w.a.n.n.n.B.C.K.P.K.s.7.q.g.n.n.A o . . . 9 z.T.Y.m.n.m.C.w.w.1.9 . . . . . . . . ",
". . . . . . . . . . . . . . . . . . 3 D 0.w.a.B.C.C.H.s.7.7.7.3.>.q.g.n.n.A o . . 9 z.U.Y.m.n.n.m.C.w.w.1.9 . . . . . . . . ",
". . . . . . . . . . . . . . . . . . 3 B O.O.&.5.5.5.5.4.>.>.0.5.>.q.g.n.n.A o . 9 w.m.U.m.n.n.C.m.C.w.w.1.9 . . . . . . . . ",
". . . . Y U . . . . . . . . . . . . 3 x [ [ } $.>.>.>.>.>.>.0.5.>.q.g.n.n.A o . q s.n.5.n.n.n.m.H.C.w.w.1.9 . . . . . . . . ",
". . . @ ^ ~ . . . . . . . . . . . . . 4 S $.[ #.>.5.5.>.>.0.w.5.>.q.5.s.n.A o . q s.n.2.2.2.H.H.J.C.w.w.1.9 . . . . . . . . ",
". . . @ ^ ^ Y U . q q 0 . . . . . . . 4 x } [ } $.>.>.>.0.f.q.>.0.w.5.s.n.A o . q s.n.w.>.>.2.2.5.V.#.5.q . . . . . . . . . ",
". . . @ ^ ^ ^ Q . k T.(.r r r r 9 . . . 4 B [ [ $.>.>.0.w.5.>.>.0.w.5.s.n.A o . q s.n.w.>.>.w.>.>.} ] q . . . . . . . . . . ",
". . . @ ^ ~ # # . j r.Y.Y.T.]._.z.9 . . 4 h S [ [ $.>.>.>.>.>.0.w.w.5.s.n.A o . q s.n.w.>.>.>.>.>.[ ] 0 . . . . . . . . . . ",
". . . @ ^ ~ . . .   j w.s.U.Y.Y.Y.j.9 . . 4 j S [ >.5.>.>.>.>.0.g.a.5.s.n.A o 0 a.n.w.w.>.>.>.>.[ ] q . . . . . . . . . . . ",
". . Q Q ^ ~ . . .   k v.r.m.H.J.U.K.6.9 . 4 h S [ [ >.5.>.>.0.w.s.:.:.s.n.A o 0 a.n.n.w.>.>.>.>.[ ] 0 . . . % Q Q Q Q Q Q Q ",
". . ^ ^ ^ ~ . . . . h q.r.n.n.m.C.n.8.0 . . 4 j S [ $.5.w.w.w.g.>.} c.C.n.A o 0 a.n.w.n.>.>.>.[ [ q . . . . * ^ ^ ^ ^ ^ ^ ^ ",
". . @ # ^ ~ . . . . o k w.r.n.n.a.0.v.8.0 . 4 h B F [ >.w.f.n.r.$.5.H.).S.A o 0 a.5.q.w.2.>.[ [ ] e T o o o   $ @ @ @ @ @ @ ",
". . . @ ^ ~ . . . .   h 0.w.g.a.>.2.0.v.6.0   5 j S [ $.5.w.w.&.} 5.H.Y.).K o 0 a.5.>.q.w.:.[ [ M D D M M m q 9 . . . . . . ",
". . . . @ @ . . . . . o k 5.&.>.5.0.>.0.v.<.6 4 h B S [ $.5.q.$.5.w.N.L.Y.| 5 k a.5.>.>.>.[ [ &.I.`.).L.K.l.9 . . . . . . . ",
". . . . . . . . . . . o q x S &.4.0.0.q.h.y.l o 6 j B F $.>.O.[ 5.w.v.V.K.U.A r.w.2.3.>.&.[ $.n.k.L.K.g.w.&.6 . . . . . . . ",
". . . . . . . . . . . . o q x S 6.K.K.Q._._.Z._ _ D x S [ $.] ` 5.g.n.n.d.J.| 5.2.>.q.:.} &.n.s.2.d.g.w.1.9 . . . . . . . . ",
". . . . . . . . . . . . . o q x ' w.s.K.L.U.!._._.i.Z B F [ F F >.w.s.s.5.d.n.5.>.>.&.} &.n.s.>.>.2.q.w.%.6 . . . . . . . . ",
". . . . . . . . . # ^ Y . . o e J w.w.a.m.J.P.P.K.V.6.F S } } S F [ &.5.>.d.n.5.>.&.} &.n.s.>.5.>.>.:.>.0 . . . . . . . . . ",
". . . . . . . . . # ^ Y . . X > n w.w.a.n.m.C.C.v.s.n.1.F } O.F Z ] $.5.3.r.n.5.&.} &.n.s.>.>.0.&.&.[ Z 6 . . . . . . . . . ",
". . . . . . . . . . . % ^ ^ R , n w.w.a.n.m.N.f.q.a.v.n.1.[ [ [ S F [ &.>.>.d.w.O.&.a.a.>.>.>.&.} [ Z 6 . . . . . . . . . . ",
". . . . . . . . . . . # ~ Q > 1 c =.w.a.n.n.s.0.5.0.r.v.n.&.S [ F Z ] $.>.>.d.n.#.w.2.>.>.&.&.[ S Z 6 . . . . . . . . . . . ",
". . . . . . . . . . . . . - < , 1 b 5.0.a.q.>.5.5.>.5.r.v.6.F B V z S [ >.2.w.n.&.>.>.&.&.[ [ S r q 4 3 . . . . . . . . . . ",
". . . . . . . . . . . 4 4 t { H L p D [ &.&.&.>.>.>.>.0.a.v.6.c , 2 d J >.>.>.d.5.&.&.} >.>.9.X.} } } S 4 . . . . . . . . . ",
". . . . . . . . . . . 9 h ..g.m.l.P  ...F ] O.$.&.5.5.q.q.w.d.-.c i i D [ $.$.w.&.} #.#.r.n.J.J.f.f.a.} 5 . . . . . . . . . ",
". . . . . . . . . . . . 0 &.w.g.v.w.a.w.&.>.&.] O.&.5.0.5.>.q.d. .p a f S [ [ J [ #.>.5.>.w.n.n.w.q.} 5 . . . . . . . . . . ",
". . . . . . . . . . . .   u &.w.5.2.5.q.w.w.<.] F ] O.$.&.>.&.,.$.d i s f V V i N #.$.>.$.$.0.0.w.} 5 . . . . . . . . . . . ",
". . . . . . . . . . . . . - / } ] &.:.$.&.>.&.J d B F ] O.$.O.#.>.*.@.@.*.*.s i i C [ [ F F F F { 5 . . . . . . . . . . . . ",
". . . . . . . . . . . . . % ! t x Z F ` o.$.O.V i d f f D F ] #.+.q.v.n.a.w.*.@.d s C V d d d d 8 . . . . . . . . . . . . . ",
". . . . . . . . . . . . . # Y T 7 8 j x Z F D d i s a a d f f N p +.r.w.5.>.q.w.K a s s a a i 2 : . . . . . . . . . . . . . ",
". . . . . . . . . . . . . . . * ^ T 5 5 9 r w i i a s s s a a a i b { #.#.#.>.5.2.K a s s i i , X . . . . . . . . . . . . . ",
"% % % % . . . . . . . . . . . # Y % . . o < , < i i a s s s s s a i p f S [ #.&.$.C < < i i , & # . . . . . . . . . # % % % ",
"^ ^ ^ ~ . . . . . . . . . . . . . . . .   + > , < i i i a s s s s a i i p f v v v < R E , , E ^ Q . . . . . . . . . I ^ ^ ^ ",
"Y Y Y I . . . . . . . . . . . . . . . . .   + > , < i < 1 a s s s a i < , , , , , = Y Y = = Y Y I . . . . . . . . . % Y Q ^ ",
". . . . . . . . . . . . . . . . . . . . . .   + : > > + + 1 i i i i < > O E E X X . . . . . . . . . . . . . . . . . . . I ^ ",
". . . . . . . . . . . . . . . . . . . . . . .   X X X     + > , , , > O . I I . . . . . . . . . . . . . . . . . . . . . % I ",
". . . . . . . . . . . . . . . . . . . . . . . . . . . . .   X + : O X . . . . . . . . . . . . . . . . . . . . . . . . . . . ",
". . . . . . . . . . . . . . . . . . . . . . . . . . . . . . .   X . . . . I I . . . . . . . . . . . . . . . . . . . . . . . ",
". . . . . . . . . . . . . . . . . . . . . . . . . . . . . . . . . . . . . ^ ^ . . . . . . . . . . . . . . . . . . . . . . . ",
". . . . . . . @ I I . . . . . . . . . . . . . . . . . . . . . . . . . . . ^ ^ . . . . . . . . . . . . . . . . . . . . . . . ",
". . . . . . . # ^ Q . . . . . . . . . . . . . . . . . . . . . . . . . . . ^ ^ . . . . . . . . . . . . . . . . . . . . . . . "
};
