/* XPM */
static const char *E_0[] = {
/* columns rows colors chars-per-pixel */
"62 62 200 2 ",
"   c black",
".  c #010204",
"X  c #070005",
"o  c #030407",
"O  c #080006",
"+  c #06030A",
"@  c #030409",
"#  c #06040A",
"$  c #03070E",
"%  c #05060D",
"&  c #0B040E",
"*  c #080A0F",
"=  c #0A0D0E",
"-  c #10000D",
";  c #0E0512",
":  c #0B0D15",
">  c #1E0017",
",  c #1A071F",
"<  c #1C041C",
"1  c #0F1216",
"2  c #121619",
"3  c #171A1A",
"4  c #22001B",
"5  c #26001E",
"6  c #28001F",
"7  c #1F0623",
"8  c #170D26",
"9  c #141825",
"0  c #1E1234",
"q  c #1C1830",
"w  c #1F1938",
"e  c #260627",
"r  c #290020",
"t  c #2D0023",
"y  c #2B0326",
"u  c #2E0024",
"i  c #280D26",
"p  c #2C062D",
"a  c #240A2B",
"s  c #300026",
"d  c #36002B",
"f  c #37022E",
"g  c #38002C",
"h  c #34092D",
"j  c #28172A",
"k  c #270B30",
"l  c #260D31",
"z  c #360330",
"x  c #360531",
"c  c #340735",
"v  c #330936",
"b  c #340835",
"n  c #330A38",
"m  c #310D3B",
"M  c #380E3A",
"N  c #201235",
"B  c #231339",
"V  c #3A1136",
"C  c #30103E",
"Z  c #1A2027",
"A  c #292E2E",
"S  c #252D32",
"D  c #232C3B",
"F  c #273039",
"G  c #313739",
"H  c #1F1941",
"J  c #191F44",
"K  c #2F1240",
"L  c #2C1746",
"P  c #2A1A4A",
"I  c #291D4D",
"U  c #3B1B47",
"Y  c #1B2149",
"T  c #1D244F",
"R  c #1C2C5E",
"E  c #2F3A40",
"W  c #27314F",
"Q  c #353F44",
"!  c #222353",
"~  c #262353",
"^  c #262354",
"/  c #242557",
"(  c #2A2756",
")  c #202856",
"_  c #21295A",
"`  c #222A5C",
"'  c #2C3754",
"]  c #262F60",
"[  c #232E64",
"{  c #2E3966",
"}  c #243068",
"|  c #25336E",
" . c #303B67",
".. c #253572",
"X. c #253776",
"o. c #243879",
"O. c #461F47",
"+. c #49244B",
"@. c #572F52",
"#. c #3B4141",
"$. c #354149",
"%. c #3C4A52",
"&. c #374461",
"*. c #344067",
"=. c #37446E",
"-. c #384570",
";. c #3B4972",
":. c #3C4A73",
">. c #424F55",
",. c #41505A",
"<. c #525D5E",
"1. c #495A65",
"2. c #4D5E6C",
"3. c #404F77",
"4. c #435279",
"5. c #48597E",
"6. c #4F616C",
"7. c #576365",
"8. c #586161",
"9. c #6B6C6C",
"0. c gray43",
"q. c #273B80",
"w. c #273C81",
"e. c #283E86",
"r. c #29458E",
"t. c #234593",
"y. c #2A4798",
"u. c #254CA1",
"i. c #2E59AD",
"p. c #2D59BD",
"a. c #4F6185",
"s. c #526588",
"d. c #546789",
"f. c #5B7090",
"g. c #5F7393",
"h. c #5E7394",
"j. c #647B9F",
"k. c #315FC9",
"l. c #3061CE",
"z. c #3268CE",
"x. c #3368DC",
"c. c #3468DC",
"v. c #3471DE",
"b. c #367ED8",
"n. c #367BE0",
"m. c #6A829F",
"M. c #758598",
"N. c #6E87A2",
"B. c #6F88A4",
"V. c #738DA7",
"C. c #738EA8",
"Z. c #7A96AF",
"A. c #7B97B0",
"S. c #7C99B1",
"D. c #3887E2",
"F. c #3CA1E8",
"G. c #3DABEA",
"H. c #8393A8",
"J. c #819BB1",
"K. c #809CB2",
"L. c #809EB4",
"P. c #88A3B7",
"I. c #86A5BA",
"U. c #89A6BA",
"Y. c #88A7BC",
"T. c #8AAABE",
"R. c #869FC1",
"E. c #8CACC0",
"W. c #91B0C2",
"Q. c #94B3C4",
"!. c #98B4C4",
"~. c #9BB9C7",
"^. c #9DBAC8",
"/. c #8AADDF",
"(. c #ACBFC0",
"). c #AFC2C1",
"_. c #A6C1CD",
"`. c #AAC5CF",
"'. c #B4C8CE",
"]. c #ADC8D1",
"[. c #B5CFD5",
"{. c #BBCDD4",
"}. c #B9D2D7",
"|. c #BAD3D8",
" X c #BDD6D9",
".X c #C1D7DB",
"XX c #C1D9DB",
"oX c #C3DADC",
"OX c #C4DBDD",
"+X c #C5DCDD",
"@X c #D3D9DE",
"#X c #CADDE1",
"$X c #CBE1E0",
"%X c #CCE2E1",
"&X c #DAEAE9",
"*X c #E0E1E8",
"=X c #E1E5F0",
"-X c #E2EAFA",
";X c #E9F2F2",
":X c #F0F7F6",
/* pixels */
"g g g g g g g g g g g g g g g g g g g g g g g g g g g g g g g g g g g g c ` ~ g g g g g g g g g g g g g g g g g g g g g g g ",
"g g g g g g g g f f g g g g g g g g g g g g g g g g g g g g g g g g g g c _ I g g g g g g g g g g g g g g g g g g g g g g g ",
"g g g g g g g n ` I g g g g g g g g g g g g g g g g g g g g g g g g g g g g g g g g g g g g g g g g g g g g g g g g g g g g ",
"g g g g g g g v ! 0 6 6 6 6 6 6 6 6 6 6 6 6 6 6 6 6 6 6 6 6 6 6 6 6 6 6 6 6 6 6 6 6 6 6 6 6 6 6 6 6 6 6 6 s g g g g g g g g ",
"g g g g g g g g s 3 8.8.9.0.0.0.0.0.0.0.0.0.0.0.0.0.0.8.8.8.8.8.8.8.8.>.%.%.%.%.%.%.%.%.%.%.%.%.%.%.<.8.A 4 g g g g g g g g ",
"g g g g g g g f p G }.}.;X:X:X:X:X:X:X:X:X:X:X:X:X:X:X.X}.}.}.}.}.}.}.J.C.C.C.C.C.C.C.C.C.C.C.C.C.C.`.}.7.4 g g g g g g g g ",
"g g g g g g g n T S T.T.oX%X%X%X%X%X%X%X%X%X%X%X%X%X%XQ.T.T.T.T.T.T.T.5.=.=.=.=.=.=.=.=.=.=.=.=.=.=.Z.T.,.4 g g g g g g g g ",
"g g g f n n n K T S T.T.oX%X%X%X%X%X%X%X%X%X%X%X%X%X%XQ.T.T.T.T.T.T.T.5.=.=.=.=.=.=.=.=.=.=.=.=.=.=.Z.T.,.7 n n n n n n g g ",
"g g g x ` ` ` ` _ w Z 4.U.Q.[.%X%X%X%X%X%X%X].`. XQ.Q.E.T.T.m.f.S.4.4.9 * * * * * * * * * * * * : *.3.D q ) ` ` ` ` ` ` f g ",
"g g g z I I I I I N 1 V.Y.].+X%X%X%X%X%X%X%XoXXX+X}.}.W.T.T.L.A.I.C.C.&.W W W W W W W W W W W W ' N.C.F 8 I I I I I I I f g ",
"g g g g g g g g g a 2 T.T.|.%X%X%X%X%X%X%X%X%X%X%X%X%XQ.T.T.T.T.T.T.T.5.=.=.=.=.=.=.=.=.=.=.=.=.:.I.T.E , g g g g g g g g g ",
"g g g g g g g g g e = 6.6.M.H.R./././././././././././.j.h.h.h.h.h.h.h.-.{ { { { { { { { { { { {  .2.6.Z < g g g g g g g g g ",
"g g g g g g g g g u - ; . R w.i.n.n.n.n.n.n.n.n.n.n.n.r.w.w.w.w.w.w.w.[ ` ` ` ` ` ` ` ` ` ` } w.o.@ & - 5 g g g g g g g g g ",
"g g g g g g g g g g g v + u.x.D.G.G.G.G.G.G.G.G.G.G.G.v.x.x.x.x.x.x.x.X.` ` ` ` ` ` ` ` ` ` e.x.l.% l g g g g g g g g g g g ",
"g g g g g g g g g g g g O u.x.D.G.G.G.G.G.G.G.G.G.G.G.v.x.x.x.x.x.x.x.X.` ` ` ` ` ` ` ` ` ` e.x.l.% l g g g g g g g g g g g ",
"g g g g g g g g g g g g O u.x.D.G.G.G.G.G.G.G.G.G.G.G.v.x.x.x.x.x.x.x.X.` ` ` ` ` ` ` ` ` ` e.x.l.% l g g g g g g g g g g g ",
"g g g g g g g g g g g g O u.x.D.G.G.G.G.G.G.G.G.G.G.G.v.x.x.x.x.x.x.x.X.` ` ` ` ` ` ` ` ` ` e.x.l.% l g g g g g g g g g g g ",
"g g g g g g g g g g g g O u.x.D.G.G.G.G.G.G.G.G.G.G.G.v.x.x.x.x.x.x.x.X.` ` ` ` ` ` ` ` ` ` e.x.l.% l g g g g g g g g g g g ",
"g g g g g g g g g g g g O u.x.D.G.G.G.G.G.G.G.G.G.G.G.v.x.x.x.x.x.x.x.X.` ` ` ` ` ` ` ` ` ` e.x.l.% l g g g g g g g g g g g ",
"g g g g g g g g g g g g O u.x.D.G.G.G.G.G.G.G.G.G.G.G.v.x.x.x.x.x.x.x.X.` ` ` ` ` ` ` ` ` ` e.x.l.% H P b g g g g g g g g g ",
"g g g g g g g g g g g g O u.x.D.G.G.G.G.G.G.G.G.G.G.G.v.x.x.x.x.x.x.x.X.` ` ` ` ` ` ` ` ` ` e.x.l.% Y ` m g g g g g g g g g ",
"g g g g g g g g g g g g O u.x.D.G.G.G.G.G.G.G.G.G.G.G.v.x.x.x.x.x.x.x.X.` ` ` ` ` ` ` ` ` ` e.x.l.% B m x g g g g g g g g g ",
"g g g g g g g g g g g g O u.x.D.G.G.G.G.G.G.G.G.G.G.G.v.x.x.x.x.x.x.x.X.` ` ` ` ` ` ` ` ` ` e.x.l.% l g g g g g g g g g g g ",
"g g g g g g g g g g g g O u.x.D.G.G.G.G.G.G.G.G.G.G.G.v.x.x.x.x.x.x.x.X.` ` ` ` ` ` ` ` ` ` e.x.l.% y g g g g g g g g g g g ",
"g g g g g g g g g g g g O u.x.D.G.G.G.G.G.G.G.G.G.G.G.v.x.x.x.x.x.x.x.X.` ` ` ` ` ` ` ` ` ` e.x.l.% t g g g g g g g g g g g ",
"g g g x ~ I g g g g g g O u.x.D.G.G.G.G.G.G.G.G.G.G.G.v.x.x.x.x.x.x.x.X.` ` ` ` ` ` ` ` ` ` e.x.l.% t g g g g g g g g g g g ",
"g g g x ` ~ g g g g g g O u.x.D.G.G.G.G.G.G.G.G.G.G.G.v.x.x.x.x.x.x.x.X.` ` ` ` ` ` ` ` ` ` e.x.l.% t g g g g g g g g g g g ",
"g g g x ` _ / I g g g g O u.x.D.G.G.G.G.G.G.G.G.G.G.G.v.x.x.x.x.x.x.x.X.` ` ` ` ` ` ` ` ` ` e.x.l.% t g g g g g g g g g g g ",
"g g g x ` ` ` ~ g g g g O u.x.D.G.G.G.G.G.G.G.G.G.G.G.v.x.x.x.x.x.x.x.X.` ` ` ` ` ` ` ` ` ` e.x.l.% t g g g g g g g g g g g ",
"g g g x ` ^ f f g g g g O u.x.D.G.G.G.G.G.G.G.G.G.G.G.v.x.x.x.x.x.x.x.X.` ` ` ` ` ` ` ` ` ` e.x.l.% t g g g g g g g g g g g ",
"g g g x ` ~ g g g g g g O u.x.D.G.G.G.G.G.G.G.G.G.G.G.v.x.x.x.x.x.x.x.X.` ` ` ` ` ` ` ` ` ` e.x.l.% t g g g g g g g g g g g ",
"g f ` ` ` ~ g g g g g g O u.x.D.G.G.G.G.G.G.G.G.G.G.G.v.x.x.x.x.x.x.x.X.` ` ` ` ` ` ` ` ` ` e.x.l.% t g g g ~ ` ` ` ` ` ` ` ",
"g f _ _ ` ~ g g g g g g O u.x.D.G.G.G.G.G.G.G.G.G.G.G.v.x.x.x.x.x.x.x.X.` ` ` ` ` ` ` ` ` ` e.x.l.% u g g g I _ _ _ _ _ _ _ ",
"g g g x ` ~ g g g g g g O u.x.D.G.G.G.G.G.G.G.G.G.G.G.v.x.x.x.x.x.x.x.X.` ` ` ` ` ` ` ` ` ` e.x.l.% l g g g g g g g g g g g ",
"g g g x / I g g g g g g O u.x.D.G.G.G.G.G.G.G.G.G.G.G.v.x.x.x.x.x.x.x.X.` ` ` ` ` ` ` ` ` ` e.x.l.% k g g g g g g g g g g g ",
"g g g g g g g g g g g g O u.x.D.G.G.G.G.G.G.G.G.G.G.G.v.x.x.x.x.x.x.x.X.` ` ` ` ` ` ` ` ` ` e.x.l.% t g g g g g g g g g g g ",
"g g g g g g g g g g g g O u.x.D.G.G.G.G.G.G.G.G.G.G.G.v.x.x.x.x.x.x.x.X.` ` ` ` ` ` ` ` ` ` e.x.l.% t g g g g g g g g g g g ",
"g g g g g g g g g g g g O u.x.D.G.G.G.G.G.G.G.G.G.G.G.v.x.x.x.x.x.x.x.X.` ` ` ` ` ` ` ` ` ` e.x.l.% t g g g g g g g g g g g ",
"g g g g g g g g g z n x O u.x.D.G.G.G.G.G.G.G.G.G.G.G.v.x.x.x.x.x.x.x.X.` ` ` ` ` ` ` ` ` ` e.x.l.% t g g g g g g g g g g g ",
"g g g g g g g g g m ` P O u.x.D.G.G.G.G.G.G.G.G.G.G.G.v.x.x.x.x.x.x.x.X.` ` ` ` ` ` ` ` ` ` e.x.l.% t g g g g g g g g g g g ",
"g g g g g g g g g v I L + u.x.D.G.G.G.G.G.G.G.G.G.G.G.v.x.x.x.x.x.x.x.X.` ` ` ` ` ` ` ` ` ` e.x.l.% t g g g g g g g g g g g ",
"g g g g g g g g g g g C % u.x.D.G.G.G.G.G.G.G.G.G.G.G.v.x.x.x.x.x.x.x.X.` ` ` ` ` ` ` ` ` ` e.x.l.% t g g g g g g g g g g g ",
"g g g g g g g g g g g v # u.x.D.G.G.G.G.G.G.G.G.G.G.G.v.x.x.x.x.x.x.x.X.` ` ` ` ` ` ` ` ` ` e.x.l.% t g g g g g g g g g g g ",
"g g g g g g g g g g g g O u.x.D.G.G.G.G.G.G.G.G.G.G.G.v.x.x.x.x.x.x.x.X.` ` ` ` ` ` ` ` ` ` e.x.l.% t g g g g g g g g g g g ",
"g g g g g g g g g g g g O u.x.D.G.G.G.G.G.G.G.G.G.G.G.v.x.x.x.x.x.x.x.X.` ` ` ` ` ` ` ` ` ` e.x.l.% t g g g g g g g g g g g ",
"g g g g g g g g g g g g O u.x.D.G.G.G.G.G.G.G.G.G.G.G.v.x.x.x.x.x.x.x.X.` ` ` ` ` ` ` ` ` ` e.x.l.% t g g g g g g g g g g g ",
"g g g g g g g g g g g g O u.x.D.G.G.G.G.G.G.G.G.G.G.G.v.x.x.x.x.x.x.x.X.` ` ` ` ` ` ` ` ` ` e.x.l.% t g g g g g g g g g g g ",
"g g g g g g g g g g g g O u.x.D.G.G.G.G.G.G.G.G.G.G.G.v.x.x.x.x.x.x.x.X.` ` ` ` ` ` ` ` ` ` e.x.l.% t g g g g g g g g g g g ",
"g g g g g g g g g d s s X t.k.b.F.F.F.F.F.F.F.F.F.F.F.z.k.k.k.k.k.k.k...` ` ` ` ` ` ` ` ` ` q.k.p.$ 5 s d g g g g g g g g g ",
"g g g g g g g g g r       J ` y.c.c.c.c.c.c.c.c.c.c.c.| ` ` ` ` ` ` ` ` ` ` ` ` ` ` ` ` ` ` ` ` ) o     > g g g g g g g g g ",
"g g g g g g g g g r 3 ).).@X*X=X-X-X-X-X-X-X-X-X-X-X-X{.'.'.'.'.'.'.'.P.S.S.S.S.S.S.S.S.S.S.S.S.K.(.).#.> g g g g g g g g g ",
"g g g g g g g g g r 3 ^.^.#X&X&X&X&X&X&X&X&X&X&X&X&X&X_.^.^.^.^.^.^.^.g.a.a.a.a.a.a.a.a.a.a.a.a.d.!.^.Q > g g g g g g g g g ",
"I I I P g g g g g r 2 T.T.|.%X%X%X%X%X%X%X%X%X%X%X%X%XQ.T.T.T.T.T.T.T.5.=.=.=.=.=.=.=.=.=.=.=.=.:.I.T.E > g g g g g P I I I ",
"` ` ` / g g g g g r 2 T.T.|.%X%X%X%X%X%X%X%X%X%X%X%X%XQ.T.T.T.T.T.T.T.5.=.=.=.=.=.=.=.=.=.=.=.=.:.I.T.E > g g g g g / ` ` ` ",
"n n n v g g g g d i $.T.~. X%X%X%X%X%X%X%X%X%X%X%X%X%XQ.T.T.T.T.T.T.T.5.=.=.=.=.=.=.=.=.=.=.=.=.;.B.I.1.j s g g g g v n _ ` ",
"g g g g g g g g s S T.T.oX%X%X%X%X%X%X%X%X%X%X%X%X$XoXW.T.T.T.T.T.T.T.s.;.=.=.=.=.=.=.=.=.=.=.=.=.=.Z.T.,.4 g g g g g g _ ` ",
"g g g g g g g g s S T.T.oX%X%X%X%X%X%X%X%X%X%X%X%XOXT.T.T.T.T.T.T.T.T.T.s.=.=.=.=.=.=.=.=.=.=.=.=.=.Z.T.,.4 g g g g g g c c ",
"g g g g g g g g s S T.T.oX%X%X%X%X%X%X%X%X%X%X%X%XOXT.T.T.T.T.T.T.T.T.T.s.=.=.=.=.=.=.=.=.=.=.=.=.=.Z.T.,.4 g g g g g g g g ",
"g g g g g g g g s S T.T.oX%X%X%X%X%X%X%X%X%X%X%X%XOXT.T.T.T.T.T.T.T.T.T.s.=.=.=.=.=.=.=.=.=.=.=.=.=.Z.T.,.4 g g g g g g g g ",
"g g g g g g g g d h +.+.@.@.@.@.@.@.@.@.@.@.@.@.@.@.+.+.+.+.+.+.+.+.+.+.U ] ( M M M M M M M M M M M O.+.V d g g g g g g g g ",
"g g g g g g g v _ I g g g g g g g g g g g g g g g g g g g g g g g g g g c ` ~ g g g g g g g g g g g g g g g g g g g g g g g ",
"g g g g g g g n ` I g g g g g g g g g g g g g g g g g g g g g g g g g g c ` ~ g g g g g g g g g g g g g g g g g g g g g g g "
};
