/* XPM */
static const char *E_0[] = {
/* columns rows colors chars-per-pixel */
"64 64 169 2 ",
"   c #060509",
".  c #0C020A",
"X  c #09080F",
"o  c #13000F",
"O  c #0B0D11",
"+  c #070C1B",
"@  c #0B0C1B",
"#  c #130213",
"$  c #1B0016",
"%  c #1F0019",
"&  c #0F1112",
"*  c #121619",
"=  c #21011B",
"-  c #0A0F23",
";  c #1E0821",
":  c #091124",
">  c #121725",
",  c #18152D",
"<  c #0B1730",
"1  c #151633",
"2  c #1C183B",
"3  c #260323",
"4  c #280020",
"5  c #36002B",
"6  c #38002C",
"7  c #350531",
"8  c #330937",
"9  c #1E2121",
"0  c #1F262B",
"q  c #1A2034",
"w  c #1C2339",
"e  c #272B2A",
"r  c #252E33",
"t  c #2F2B39",
"y  c #2E3538",
"u  c #36393F",
"i  c #363D3C",
"p  c #21224E",
"a  c #37224D",
"s  c #273040",
"d  c #2C374D",
"f  c #323D4B",
"g  c #252454",
"h  c #222A5C",
"j  c #362450",
"k  c #313C51",
"l  c #263060",
"z  c #2E3462",
"x  c #2E3967",
"c  c #303C61",
"v  c #253574",
"b  c #26397A",
"n  c #473C5A",
"m  c #39404D",
"M  c #394657",
"N  c #37446E",
"B  c #394772",
"V  c #3C4B73",
"C  c #3B4A78",
"Z  c #444444",
"A  c #414847",
"S  c #444C53",
"D  c #404E58",
"F  c #42515A",
"G  c #49486B",
"H  c #514162",
"J  c #4B5D68",
"K  c #435276",
"L  c #43537A",
"P  c #48537A",
"I  c #48597F",
"U  c #615575",
"Y  c #6A5D7A",
"T  c #566163",
"R  c #4F6276",
"E  c #526571",
"W  c #556879",
"Q  c #5B707D",
"!  c #72647E",
"~  c #6E7B7D",
"^  c #243D84",
"/  c #273F88",
"(  c #26428E",
")  c #284390",
"_  c #2A4799",
"`  c #2A489B",
"'  c #2C4EA7",
"]  c #2C52AB",
"[  c #2B58BB",
"{  c #4C5A80",
"}  c #4E6185",
"|  c #586486",
" . c #536789",
".. c #5A678B",
"X. c #566A8B",
"o. c #596E8E",
"O. c #5D7380",
"+. c #5F7594",
"@. c #626885",
"#. c #617680",
"$. c #686E90",
"%. c #637896",
"&. c #647B99",
"*. c #4F6CAE",
"=. c #4D72BF",
"-. c #2E5FC9",
";. c #316BC1",
":. c #3374CB",
">. c #3266D9",
",. c #3368DC",
"<. c #357DD3",
"1. c #806F85",
"2. c #827186",
"3. c #68808F",
"4. c #778687",
"5. c #6C8595",
"6. c #69819E",
"7. c #748C99",
"8. c #6E87A3",
"9. c #6F88A0",
"0. c #748CA6",
"q. c #738EA8",
"w. c #7692A8",
"e. c #7995AE",
"r. c #7F9DAF",
"t. c #6E84BE",
"y. c #7F9BB2",
"u. c #388BE3",
"i. c #3A98E6",
"p. c #3DABEA",
"a. c #5583DD",
"s. c #6C89CC",
"d. c #7498E7",
"f. c #8E9FA1",
"g. c #819DB3",
"h. c #82A0B7",
"j. c #88A4B4",
"k. c #86A4BA",
"l. c #8BABBF",
"z. c #90A9B7",
"x. c #93AEBE",
"c. c #9CB4BE",
"v. c #8EAEC1",
"b. c #94B3C4",
"n. c #99B7C7",
"m. c #9DBAC8",
"M. c #A1BDCA",
"N. c #A6C1CD",
"B. c #AAC4CE",
"V. c #B6CCCE",
"C. c #ACC6D0",
"Z. c #AEC9D2",
"A. c #B2CBD2",
"S. c #B8CDD0",
"D. c #BBD2D6",
"F. c #BED5DA",
"G. c #BFD8E0",
"H. c #C4D5D6",
"J. c #C0D7DA",
"K. c #C3DADC",
"L. c #C8DFDF",
"P. c #C9DEE0",
"I. c #CCE2E1",
"U. c #D3E5E5",
"Y. c #DAE2E3",
"T. c #E4EBED",
"R. c #E8EBEB",
"E. c #EFF3F5",
"W. c #EFF4F9",
/* pixels */
"6 6 6 6 6 6 6 6 6 6 6 6 6 6 6 6 6 6 6 6 6 6 6 6 6 6 6 6 6 6 6 6 6 6 6 6 6 7 g g 7 6 6 6 6 6 6 6 6 6 6 6 6 6 6 6 6 6 6 6 6 6 6 6 ",
"6 6 6 6 6 6 6 6 7 7 6 6 6 6 6 6 6 6 6 6 6 6 6 6 6 6 6 6 6 6 6 6 6 6 6 6 6 7 g g 7 6 6 6 6 6 6 6 6 6 6 6 6 6 6 6 6 6 6 6 6 6 6 6 ",
"6 6 6 6 6 6 6 7 , , % % % % % % % % % % % % % % % % % % % % % % % % % % % % % % % % % % % % % % % % % % % % % % 5 6 6 6 6 6 6 6 ",
"6 6 6 6 6 6 6 7   e i i Z Z Z Z Z Z Z Z Z Z Z Z Z Z Z Z i i i i i i i i y r r r r r r r r r r r r r r r y i e   5 6 6 6 6 6 6 6 ",
"6 6 6 6 6 6 6 6 . 4.V.H.R.R.R.R.R.R.R.R.R.R.R.R.R.R.R.Y.S.V.V.V.V.V.V.V.z.w.w.w.w.w.w.w.w.w.w.w.w.w.w.w.c.V.f.& 5 6 6 6 6 6 6 6 ",
"6 6 6 6 6 6 6 6 . #.b.N.U.U.U.U.U.U.U.U.U.U.U.U.U.U.U.K.n.b.b.b.b.b.b.b.&.L L L L L L L L L L L L L L L 0.b.7.O 5 6 6 6 6 6 6 6 ",
"6 6 6 6 6 6 6 7 X Q l.m.L.I.I.I.I.I.I.I.I.I.I.I.I.I.I.D.v.l.l.l.l.l.l.l.o.N N N N N N N N N N N N N N N 6.l.5.O 5 6 6 6 6 6 6 6 ",
"6 6 6 6 7 7 7 8 1 f R 0.N.C.K.I.I.I.I.I.I.I.K.A.K.A.B.M.v.l.l.q.8.h.&.+.M q q q q q q q q q q q q q w c } W m ; 7 7 7 7 7 7 6 6 ",
"6 6 6 7 g g g g h @ s &.l.M.J.I.I.I.I.I.I.I.K.B.K.Z.M.n.l.l.l.8.&.y.o. .d > > > > > > > > > > > > > , K  .k O p g g g g g g 7 6 ",
"6 6 6 7 g g g g g @ D l.b.J.I.I.I.I.I.I.I.I.I.I.I.I.I.D.v.l.l.l.l.l.l.l.X.N N N N N N N N N N N N N V w.l.E O p g g g g g g 7 6 ",
"6 6 6 6 7 7 7 7 7 # M r.j.A.D.F.G.G.G.G.G.G.G.G.G.G.G.Z.k.h.h.h.h.h.h.h. .N N N N N N N N N N N N N B 9.r.J . 5 7 7 7 7 7 7 6 6 ",
"6 6 6 6 6 6 6 6 5 o & 0 r G P *.a.a.a.a.a.a.a.a.a.a.a.=.C B B B B B B B x l l l l l l l l l l l l l h r 0 * . 5 6 6 6 6 6 6 6 6 ",
"6 6 6 6 6 6 6 6 5 4 = # + ( ' :.u.u.u.u.u.u.u.u.u.u.u.<.] ' ' ' ' ' ' ' b h h h h h h h h h h h v ' ` : # = = 5 6 6 6 6 6 6 6 6 ",
"6 6 6 6 6 6 6 6 6 6 6 3 : [ ,.u.p.p.p.p.p.p.p.p.p.p.p.i.,.,.,.,.,.,.,.,.) h h h h h h h h h h h ( >.-.< = 6 6 6 6 6 6 6 6 6 6 6 ",
"6 6 6 6 6 6 6 6 6 6 6 4 - [ ,.u.p.p.p.p.p.p.p.p.p.p.p.i.,.,.,.,.,.,.,.,.) h h h h h h h h h h h ( >.-.< = 6 6 6 6 6 6 6 6 6 6 6 ",
"6 6 6 6 6 6 6 6 6 6 6 4 - [ ,.u.p.p.p.p.p.p.p.p.p.p.p.i.,.,.,.,.,.,.,.,.) h h h h h h h h h h h / >.-.< = 6 6 6 6 6 6 6 6 6 6 6 ",
"6 6 6 6 6 6 6 6 6 6 6 4 - [ ,.u.p.p.p.p.p.p.p.p.p.p.p.i.,.,.,.,.,.,.,.,.) h h h h h h h h h h h / >.-.< = 6 6 6 6 6 6 6 6 6 6 6 ",
"6 6 6 6 6 6 6 6 6 6 6 4 - [ ,.u.p.p.p.p.p.p.p.p.p.p.p.i.,.,.,.,.,.,.,.,.) h h h h h h h h h h h / >.-.< = 6 6 6 6 6 6 6 6 6 6 6 ",
"6 6 6 6 6 6 6 6 6 6 6 4 - [ ,.u.p.p.p.p.p.p.p.p.p.p.p.i.,.,.,.,.,.,.,.,.) h h h h h h h h h h h / >.-.< = 6 6 6 6 6 6 6 6 6 6 6 ",
"6 6 6 6 6 6 6 6 6 6 6 4 - [ ,.u.p.p.p.p.p.p.p.p.p.p.p.i.,.,.,.,.,.,.,.,.) h h h h h h h h h h h / >.-.< % 7 6 6 6 6 6 6 6 6 6 6 ",
"6 6 6 6 6 6 6 6 6 6 6 4 - [ ,.u.p.p.p.p.p.p.p.p.p.p.p.i.,.,.,.,.,.,.,.,.) h h h h h h h h h h h / >.-.< 1 g 7 6 6 6 6 6 6 6 6 6 ",
"6 6 6 6 6 6 6 6 6 6 6 4 - [ ,.u.p.p.p.p.p.p.p.p.p.p.p.i.,.,.,.,.,.,.,.,.) h h h h h h h h h h h / >.-.< 1 g 7 6 6 6 6 6 6 6 6 6 ",
"6 6 6 6 6 6 6 6 6 6 6 4 - [ ,.u.p.p.p.p.p.p.p.p.p.p.p.i.,.,.,.,.,.,.,.,.) h h h h h h h h h h h / >.-.< % 7 6 6 6 6 6 6 6 6 6 6 ",
"6 6 6 6 6 6 6 6 6 6 6 4 - [ ,.u.p.p.p.p.p.p.p.p.p.p.p.i.,.,.,.,.,.,.,.,.) h h h h h h h h h h h / >.-.< = 6 6 6 6 6 6 6 6 6 6 6 ",
"6 6 6 6 6 6 6 6 6 6 6 4 - [ ,.u.p.p.p.p.p.p.p.p.p.p.p.i.,.,.,.,.,.,.,.,.) h h h h h h h h h h h / >.-.< = 6 6 6 6 6 6 6 6 6 6 6 ",
"6 6 6 6 7 7 6 6 6 6 6 4 - [ ,.u.p.p.p.p.p.p.p.p.p.p.p.i.,.,.,.,.,.,.,.,.) h h h h h h h h h h h / >.-.< = 6 6 6 6 6 6 6 6 6 6 6 ",
"6 6 6 7 g g 7 6 6 6 6 4 - [ ,.u.p.p.p.p.p.p.p.p.p.p.p.i.,.,.,.,.,.,.,.,.) h h h h h h h h h h h / >.-.< = 6 6 6 6 6 6 6 6 6 6 6 ",
"6 6 6 7 g g 8 7 6 6 6 4 - [ ,.u.p.p.p.p.p.p.p.p.p.p.p.i.,.,.,.,.,.,.,.,.) h h h h h h h h h h h / >.-.< = 6 6 6 6 6 6 6 6 6 6 6 ",
"6 6 6 7 g h g g 7 6 6 4 - [ ,.u.p.p.p.p.p.p.p.p.p.p.p.i.,.,.,.,.,.,.,.,.) h h h h h h h h h h h / >.-.< = 6 6 6 6 6 6 6 6 6 6 6 ",
"6 6 6 7 g h g g 7 6 6 4 - [ ,.u.p.p.p.p.p.p.p.p.p.p.p.i.,.,.,.,.,.,.,.,.) h h h h h h h h h h h / >.-.< = 6 6 6 6 6 6 6 6 6 6 6 ",
"6 6 6 7 g g 8 7 6 6 6 4 - [ ,.u.p.p.p.p.p.p.p.p.p.p.p.i.,.,.,.,.,.,.,.,.) h h h h h h h h h h h / >.-.< = 6 6 6 6 6 6 6 6 6 6 6 ",
"6 6 7 8 g g 7 6 6 6 6 4 - [ ,.u.p.p.p.p.p.p.p.p.p.p.p.i.,.,.,.,.,.,.,.,.) h h h h h h h h h h h / >.-.< = 6 6 6 7 7 7 7 7 7 7 7 ",
"6 7 g g h g 7 6 6 6 6 4 - [ ,.u.p.p.p.p.p.p.p.p.p.p.p.i.,.,.,.,.,.,.,.,.) h h h h h h h h h h h / >.-.< = 6 6 7 g g g g g g g g ",
"6 7 g g h g 7 6 6 6 6 4 - [ ,.u.p.p.p.p.p.p.p.p.p.p.p.i.,.,.,.,.,.,.,.,.) h h h h h h h h h h h / >.-.< = 6 6 7 g g g g g g g g ",
"6 6 7 8 g g 7 6 6 6 6 4 - [ ,.u.p.p.p.p.p.p.p.p.p.p.p.i.,.,.,.,.,.,.,.,.) h h h h h h h h h h h / >.-.< = 6 6 6 7 7 7 7 7 7 7 7 ",
"6 6 6 7 g g 7 6 6 6 6 4 - [ ,.u.p.p.p.p.p.p.p.p.p.p.p.i.,.,.,.,.,.,.,.,.) h h h h h h h h h h h / >.-.< = 6 6 6 6 6 6 6 6 6 6 6 ",
"6 6 6 6 7 7 6 6 6 6 6 4 - [ ,.u.p.p.p.p.p.p.p.p.p.p.p.i.,.,.,.,.,.,.,.,.) h h h h h h h h h h h / >.-.< = 6 6 6 6 6 6 6 6 6 6 6 ",
"6 6 6 6 6 6 6 6 6 6 6 4 - [ ,.u.p.p.p.p.p.p.p.p.p.p.p.i.,.,.,.,.,.,.,.,.) h h h h h h h h h h h / >.-.< = 6 6 6 6 6 6 6 6 6 6 6 ",
"6 6 6 6 6 6 6 6 6 6 6 4 - [ ,.u.p.p.p.p.p.p.p.p.p.p.p.i.,.,.,.,.,.,.,.,.) h h h h h h h h h h h / >.-.< = 6 6 6 6 6 6 6 6 6 6 6 ",
"6 6 6 6 6 6 6 6 6 6 7 3 - [ ,.u.p.p.p.p.p.p.p.p.p.p.p.i.,.,.,.,.,.,.,.,.) h h h h h h h h h h h / >.-.< = 6 6 6 6 6 6 6 6 6 6 6 ",
"6 6 6 6 6 6 6 6 6 7 g 2 : [ ,.u.p.p.p.p.p.p.p.p.p.p.p.i.,.,.,.,.,.,.,.,.) h h h h h h h h h h h / >.-.< = 6 6 6 6 6 6 6 6 6 6 6 ",
"6 6 6 6 6 6 6 6 6 7 g 2 : [ ,.u.p.p.p.p.p.p.p.p.p.p.p.i.,.,.,.,.,.,.,.,.) h h h h h h h h h h h / >.-.< = 6 6 6 6 6 6 6 6 6 6 6 ",
"6 6 6 6 6 6 6 6 6 6 7 3 : [ ,.u.p.p.p.p.p.p.p.p.p.p.p.i.,.,.,.,.,.,.,.,.) h h h h h h h h h h h / >.-.< = 6 6 6 6 6 6 6 6 6 6 6 ",
"6 6 6 6 6 6 6 6 6 6 6 3 : [ ,.u.p.p.p.p.p.p.p.p.p.p.p.i.,.,.,.,.,.,.,.,.) h h h h h h h h h h h / >.-.< = 6 6 6 6 6 6 6 6 6 6 6 ",
"6 6 6 6 6 6 6 6 6 6 6 4 - [ ,.u.p.p.p.p.p.p.p.p.p.p.p.i.,.,.,.,.,.,.,.,.) h h h h h h h h h h h / >.-.< = 6 6 6 6 6 6 6 6 6 6 6 ",
"6 6 6 6 6 6 6 6 6 6 6 4 - [ ,.u.p.p.p.p.p.p.p.p.p.p.p.i.,.,.,.,.,.,.,.,.) h h h h h h h h h h h / >.-.< = 6 6 6 6 6 6 6 6 6 6 6 ",
"6 6 6 6 6 6 6 6 6 6 6 4 - [ ,.u.p.p.p.p.p.p.p.p.p.p.p.i.,.,.,.,.,.,.,.,.) h h h h h h h h h h h / >.-.< = 6 6 6 6 6 6 6 6 6 6 6 ",
"6 6 6 6 6 6 6 6 6 6 6 4 - [ ,.u.p.p.p.p.p.p.p.p.p.p.p.i.,.,.,.,.,.,.,.,.) h h h h h h h h h h h / >.-.< = 6 6 6 6 6 6 6 6 6 6 6 ",
"6 6 6 6 6 6 6 6 6 6 6 4 - [ ,.u.p.p.p.p.p.p.p.p.p.p.p.i.,.,.,.,.,.,.,.,.) h h h h h h h h h h h / >.-.< = 6 6 6 6 6 6 6 6 6 6 6 ",
"6 6 6 6 6 6 6 6 6 6 6 4 - [ ,.u.p.p.p.p.p.p.p.p.p.p.p.i.,.,.,.,.,.,.,.,.) h h h h h h h h h h h / >.-.< = 6 6 6 6 6 6 6 6 6 6 6 ",
"6 6 6 6 6 6 6 6 5 = $ o + ^ ` ;.u.u.u.u.u.u.u.u.u.u.u.:.` ` ` ` ` ` ` ` v h h h h h h h h h h h v _ ( - o $ = 5 6 6 6 6 6 6 6 6 ",
"6 6 6 6 6 6 6 6 5 o 9 A S @.$.t.d.d.d.d.d.d.d.d.d.d.d.s...| | | | | | | { L L L L L L L L L L L L L K S A e . 5 6 6 6 6 6 6 6 6 ",
"6 6 6 6 6 6 6 6 5 o T D.J.T.E.E.W.W.W.W.W.W.W.W.W.W.W.T.F.D.D.D.D.D.D.D.x.e.e.e.e.e.e.e.e.e.e.e.e.e.y.B.D.~ . 5 6 6 6 6 6 6 6 6 ",
"7 7 7 7 6 6 6 6 5 o F b.m.P.U.U.U.U.U.U.U.U.U.U.U.U.U.J.b.b.b.b.b.b.b.b.%.L L L L L L L L L L L L L I g.b.W . 5 6 6 6 6 7 7 7 7 ",
"g g g g 7 6 6 6 5 o F l.b.K.I.I.I.I.I.I.I.I.I.I.I.I.I.D.v.l.l.l.l.l.l.l.o.N N N N N N N N N N N N N V e.l.E . 5 6 6 6 7 g g g g ",
"g g g g 7 6 6 6 5 o F l.b.K.I.I.I.I.I.I.I.I.I.I.I.I.I.D.v.l.l.l.l.l.l.l.o.N N N N N N N N N N N N N V e.l.E . 5 6 6 6 7 g g h h ",
"7 7 7 7 6 6 6 6 = t O.b.B.K.I.I.I.I.I.I.I.I.I.I.I.I.I.D.v.l.l.l.l.l.l.l.o.N N N N N N N N N N N N N B +.y.3.u = 5 6 6 6 7 8 g h ",
"6 6 6 6 6 6 6 6 . Q l.m.L.I.I.I.I.I.I.I.I.I.I.I.I.I.K.A.v.l.l.l.l.l.l.l.&.K N N N N N N N N N N N N N N 6.l.5.O 5 6 6 6 6 7 g g ",
"6 6 6 6 6 6 6 6 . Q l.m.L.I.I.I.I.I.I.I.I.I.I.I.I.I.A.v.l.l.l.l.l.l.l.l.k.&.N N N N N N N N N N N N N N 6.l.5.O 5 6 6 6 6 6 7 7 ",
"6 6 6 6 6 6 6 6 . Q l.m.L.I.I.I.I.I.I.I.I.I.I.I.I.I.Z.l.l.l.l.l.l.l.l.l.l.6.N N N N N N N N N N N N N N 6.l.5.O 5 6 6 6 6 6 6 6 ",
"6 6 6 6 6 6 6 6 . Q l.m.L.I.I.I.I.I.I.I.I.I.I.I.I.I.Z.l.l.l.l.l.l.l.l.l.l.6.N N N N N N N N N N N N N N 6.l.5.O 5 6 6 6 6 6 6 6 ",
"6 6 6 6 6 6 6 6 ; n U Y 1.2.2.2.2.2.2.2.2.2.2.2.2.2.! U U U U U U U U U U H z z j a a a a a a a a a a a H U H = 5 6 6 6 6 6 6 6 ",
"6 6 6 6 6 6 6 7 g g 7 6 6 6 6 6 6 6 6 6 6 6 6 6 6 6 6 6 6 6 6 6 6 6 6 6 6 7 g g 7 6 6 6 6 6 6 6 6 6 6 6 6 6 6 6 6 6 6 6 6 6 6 6 ",
"6 6 6 6 6 6 6 7 g g 7 6 6 6 6 6 6 6 6 6 6 6 6 6 6 6 6 6 6 6 6 6 6 6 6 6 6 7 g g 7 6 6 6 6 6 6 6 6 6 6 6 6 6 6 6 6 6 6 6 6 6 6 6 "
};
