/* XPM */
static const char *E_1[] = {
/* columns rows colors chars-per-pixel */
"62 62 188 2 ",
"   c #040204",
".  c #080007",
"X  c #05060C",
"o  c #0D000A",
"O  c #07090F",
"+  c #10000D",
"@  c #090712",
"#  c #070913",
"$  c #0A0915",
"%  c #0A0C1C",
"&  c #150111",
"*  c #1B0015",
"=  c #120C12",
"-  c #1D031B",
";  c #17081E",
":  c #22001A",
">  c #28001F",
",  c #130D24",
"<  c #190C27",
"1  c #0D1124",
"2  c #0D142C",
"3  c #101421",
"4  c #161B25",
"5  c #10142D",
"6  c #0B1630",
"7  c #0D1B32",
"8  c #0E1E3E",
"9  c #161C3C",
"0  c #2B0122",
"q  c #2F042B",
"w  c #310026",
"e  c #36002B",
"r  c #38002C",
"t  c #211427",
"y  c #2E0D38",
"u  c #350532",
"i  c #330936",
"p  c #330A38",
"a  c #28143E",
"s  c #30103E",
"d  c #1E263C",
"f  c #282B34",
"g  c #31323F",
"h  c #0F1F41",
"j  c #181E42",
"k  c #2E1544",
"l  c #291D4D",
"z  c #1B2445",
"x  c #12254F",
"c  c #1C224B",
"v  c #1F2653",
"b  c #1D2A5C",
"n  c #193D56",
"m  c #27304E",
"M  c #2C334B",
"N  c #2F3A4F",
"B  c #262353",
"V  c #222A5C",
"C  c #372D57",
"Z  c #232E63",
"A  c #243467",
"S  c #293362",
"D  c #243069",
"F  c #313A62",
"G  c #303B68",
"H  c #253675",
"J  c #26387A",
"K  c #174159",
"L  c #3C4A5B",
"P  c #1D4566",
"I  c #1E5371",
"U  c #3A4861",
"Y  c #37446E",
"T  c #28477C",
"R  c #3C4A72",
"E  c #495150",
"W  c #52556D",
"Q  c #524E71",
"!  c #45557D",
"~  c #47587E",
"^  c #4A5C7B",
"/  c #586065",
"(  c #536571",
")  c #5C727F",
"_  c #64696C",
"`  c #67777C",
"'  c #717D7C",
"]  c #283D84",
"[  c #294D82",
"{  c #28418A",
"}  c #2C568D",
"|  c #294594",
" . c #2B499C",
".. c #2C5795",
"X. c #2E629A",
"o. c #28719B",
"O. c #2C4DA4",
"+. c #2C51AB",
"@. c #3356AB",
"#. c #2D54B3",
"$. c #2E59BC",
"%. c #2D73A9",
"&. c #4B5C81",
"*. c #566385",
"=. c #576A8C",
"-. c #596C8D",
";. c #5F7281",
":. c #5E7494",
">. c #6F718D",
",. c #677F8E",
"<. c #607695",
"1. c #647B99",
"2. c #697F9C",
"3. c #2E5DC4",
"4. c #305EC8",
"5. c #336DC9",
"6. c #3265D5",
"7. c #336ED0",
"8. c #3367DA",
"9. c #3368DC",
"0. c #367ED7",
"q. c #3578DF",
"w. c #2F82B2",
"e. c #3188BA",
"r. c #68808F",
"t. c #78878B",
"y. c #6E8491",
"u. c #69819E",
"i. c #728C9C",
"p. c #6D86A2",
"a. c #748DA8",
"s. c #7893AD",
"d. c #7D9AB2",
"f. c #3587C2",
"g. c #378FCB",
"h. c #3790CD",
"j. c #3999D8",
"k. c #3BA1DF",
"l. c #388AE3",
"z. c #3B9CE6",
"x. c #3B9FE8",
"c. c #3CA6E4",
"v. c #3CA1E8",
"b. c #3DABEA",
"n. c #6588CA",
"m. c #6792DE",
"M. c #87859A",
"N. c #889398",
"B. c #8999AD",
"V. c #9A95A3",
"C. c #839EB2",
"Z. c #91A1A0",
"A. c #9AAAA9",
"S. c #83A1B5",
"D. c #8BABBF",
"F. c #97AEB8",
"G. c #A0ADAC",
"H. c #A8ABBF",
"J. c #A4B6B5",
"K. c #B6B8B9",
"L. c #ADC0BF",
"P. c #8EADC0",
"I. c #90AFC2",
"U. c #92B1C3",
"Y. c #99B7C6",
"T. c #9AB8C7",
"R. c #9BB7C8",
"E. c #9DBBC9",
"W. c #A2BFCB",
"Q. c #ABBEE8",
"!. c #A6C2CD",
"~. c #AAC5CF",
"^. c #B1C4C4",
"/. c #AFC9D2",
"(. c #B3CDD4",
"). c #B8D1D7",
"_. c #BED5DA",
"`. c #AFC3F1",
"'. c #C5DCDD",
"]. c #C9DFDF",
"[. c #D1DEE5",
"{. c #CCE2E1",
"}. c #D0E4E3",
"|. c #D9E9E9",
" X c #E0EDED",
".X c #E8F2F2",
"XX c #F3F8F8",
"oX c #FBFDFD",
/* pixels */
"r r r r r r r r r r r r r r r r r r r r r r r r r r r r r r r r r r r r i V B r r r r r r r r r r r r r r r r r r r r r r r ",
"r r r r r r r r r r r r r r r r r r r r r r r r r r r r r r r r r r r r i V l r r r r r r r r r r r r r r r r r r r r r r r ",
"r r r r r r r p V l r r r r r r r r r r r e e e e e e e e e e e e e e e e e e e e e e e e e e e r r r r r r r r r r r r r r ",
"r r r r r r r i B l r e e e e e e e e e w X                                                     0 e e e r r r r r r r r r r ",
"r r r r r r r r r r r : . . . . . . . . = J.^.^.^.^.^.^.^.^.^.^.^.^.^.^.^.^.^.^.^.^.^.^.^.^.^.^.f . . * r r r r r r r r r r ",
"r r r r r r r r i * + E Z.Z.Z.Z.Z.Z.Z.Z.Z.'.{.{.{.{.{.{.{.{.{.{.{.{.{.{.{.{.{.{.{.{.{.{.{.{.{.{.A.Z.Z._ & r r r r r r r r r ",
"r r r r r r r p 5 / ' A.{.{.{.{.{.{.{.{.{.{.{.{.{.{.{.{.{.{.{.{.{.{.{.{.{.{.{.{.{.{.{.{.{.{.{.{.{.{.{.L._ * r r r r r r r r ",
"r r r r p p p k   A.{.{.{.{.{.{.{.{.{.{.{.{.{.{.{.{.{.{.{.{.{.{.{.{.{.{.{.{.{.{.{.{.{.{.{.{.{.{.{.{.{.{.J.  p p p p p p r r ",
"r r r u V V V V   G.}.{.{.{.{.{.{.{.{.{.{.{.{.{.{.{.{.{.{.{.{.{.{.{.{.{.{.{.{.{.{.{.{.{.{.{.{.{.{.{.'._.F.  V V V V V V r r ",
"r r r u l l l l   K. X}.}.}.{.{.{.{.{.{.{.{.{.{.{.{.{.{.{.{.{.{.{.{.{.{.{.{.{.{.{.].'.'.'.'.'.'.'.'.~.D.i.  l l l l l l r r ",
"r r r r r r r r   y.[.oXoXXX{.{.{.{.{.{.{.{.{.{.{.{.{.{.{.{.{.{.{.{.{.{.{.{.{.{.{.Y.I.I.I.I.I.I.I.I.P.D.i.  r r r r r r r r ",
"r r r r r r r r   ,.R.).|.|.XXXXXXXXXXXXXXXXXXXXXXXX.X{.{.{.{.{.{.{.{.!.T.T.T.T.Y.=.&.&.&.&.&.&.&.&.u.D.i.  r r r r r r r r ",
"r r r r r r r r : g r.!.{.{. X X X X X X X X X X X X|.!.!.!.!.!.!.!.!.2.-.-.-.-.-.R Y Y Y Y Y Y Y Y ~ ^ M : r r r r r r r r ",
"r r r r r r r r r o L C./.(.{.{.{.{.{.{.{.{.{.{.{.{.'.D.D.D.D.D.D.D.D.&.Y Y Y Y Y z d d d d d d d F &.U . r r r r r r r r r ",
"r r r r r r r r r o N u.U.!.{.{.{.{.{.{.{.{._.'.'.).(.D.D.D.d.d.S.a.a.U m m m m m 4 3 3 3 3 3 3 3 U p.) . r r r r r r r r r ",
"r r r r r r r r r o ( D.E.{.{.{.{.{.{.{.{.{.W.(.(.U.U.D.D.D.1.:.s.! ! 4 O O O O # F Y Y Y Y Y Y Y p.S.( + r r r r r r r r r ",
"r r r r r r r r r o ( D.E.{.{.{.{.{.{.{.{.{.{.{.{.{.'.D.D.D.D.D.D.D.D.~ Y Y Y Y Y Y Y Y Y Y Y Y Y p.W & e r r r r r r r r r ",
"r r r r r r r r r w t 4 f *.].{.{.{.{.{.{.{.{.{.{.{.'.D.D.D.D.D.D.D.D.&.Y Y Y Y Y S V V V V V V V d t w r r r r r r r r r r ",
"r r r r r r r r r r 0 & 7 @.=.n.m.m.m.m.m.m.m.m.m.n.*.! ! ! ! ! ! ! ! G S S S S S V V V V V Z +.#.h ; r r r r r r r r r r r ",
"r r r r r r r r r r r : 8 6. .0.l.l.l.l.l.l.l.l.5.{ V V |  . . . . . .D V V V V V V V V V V D 6.9.x 3 l i r r r r r r r r r ",
"r r r r r r r r r r r : 8 9.9.x.b.b.b.b.b.b.b.h.} V V V 4.9.9.9.9.9.9.J V V V V V V V V V V D 6.9.x 5 V p r r r r r r r r r ",
"r r r r r r r r r r r : 8 9.9.x.b.b.b.b.b.b.j.} V V V V #.6.9.9.9.9.9.J V V V V V V V V V V D 6.9.x , p u r r r r r r r r r ",
"r r r r r r r r r r r : 8 9.9.x.b.b.b.b.b.c.T V V V V V V #.9.9.9.9.9.J V V V V V V V V V V D 6.9.x ; r r r r r r r r r r r ",
"r r r r r r r r r r r : 8 9.9.x.b.b.b.b.c.T Z V V V V V V #.9.9.9.9.9.J V V V V V V V V V V D 6.9.x * r r r r r r r r r r r ",
"r r r r r r r r r r r : 8 9.9.x.b.b.b.j.[ Z V V V V V V V H #.9.9.9.9.J V V V V V V V V V V D 6.9.x * r r r r r r r r r r r ",
"r r r u B l r r r r r : 2  .8.x.b.b.e.P Z  .D V V V V V V V O.9.9.9.9.J V V V V V V V V V V D 6.9.x * r r r r r r r r r r r ",
"r r r u V B r r r r r : % Z +.j.b.e.K % | 6.J V V V V V V V ] $.9.9.9.J V V V V V V V V V V D 6.9.x * r r r r r r r r r r r ",
"r r r u V V B l r r r : % V V %.w.n . 6 9.9.J V V V V V V V V { 9.9.9.J V V V V V V V V V V D 6.#.j : r r r r r r r r r r r ",
"r r r u V V V B r r r : % V v @   - : 6 9.9.J V Z A A V V V V { 6.9.9.J V V V V V V V V V V Z 3.2 > r r r r r r r r r r r r ",
"r r r u V B r r r r r : % v X 0 e e : 6 9.9.J V X.k.g.V V V V Z ] 9.9.J V V V V V V V V V V v # 0 e r r r r r r r r r r r r ",
"r r r u V B r r r r r :   $ 0 e r r : 6 9.9.J V X.b.z.$.D V V V J 9.9.J V V V V V V V V V c $ 0 e r r r r r r r r r r r r r ",
"r r V V V B r r r r r 0 : > r r r r : 6 9.9.J } g.b.v.9.#.H V V D | 6.J V V c 5 V V V V z , > e r r r r r r B V V V V V V V ",
"r r V V V B r r r r r r r r r r r r : 6 9.9.J %.b.b.v.9.9.+.H V V Z 6.J V c 1 X V V V z % o r r r r r r r r l V V V V V V V ",
"r r r u V B r r r r r w > 0 r r r r : 6 9.9...f.b.b.v.9.9.9.+.H V Z #.b j 5 # X V V c %   o r r k V s r r r r r r r r r r r ",
"r r r u B l r r r r r : X % w e r r : 6 9.9.z.b.b.b.v.9.9.9.9.#.D V V $   5 9 X v V %     o r q a c y r r r r r r r r r r r ",
"r r r r r r r r r r r : 8 $.  0 r r : 6 9.9.z.b.b.b.v.9.9.9.9.8.$.V V $   5 9     c %     o a       * r r r r r r r r r r r ",
"r r r r r r r r r r r : 8 6.#., 0 r : 6 9.z.b.b.b.b.v.9.9.9.9.9.6.$.Z c c v 9 X c V %       % +.#.h * r r r r r r r r r r r ",
"r r r r r r r r r r r : 8 9.9.%.d > : 6 9.v.b.b.b.b.v.9.9.9.9.9.9.8.#.D V V v j V V %     X c 6.9.x * r r r r r r r r r r r ",
"r r r r r r r r r u p - 8 9.9.x.o.z & 7 l.b.b.b.b.b.v.9.9.9.9.9.9.9.9.J V V V V V V %   # 9 D 6.9.x * r r r r r r r r r r r ",
"r r r r r r r r r p V < 8 9.9.x.b.o.n I b.b.b.b.b.b.v.9.9.9.9.9.9.9.9.J V V V V V V % # 9 V D 6.9.x * r r r r r r r r r r r ",
"r r r r r r r r r i l < 8 9.9.x.b.b.b.b.b.b.b.b.b.b.v.9.9.9.9.9.9.9.9.J V V V V V V 1 9 V V D 6.9.x * r r r r r r r r r r r ",
"r r r r r r r r r r r < 8 9.9.x.b.b.b.b.b.b.b.b.b.b.v.9.9.9.9.9.9.9.9.J V V V V V V V V V V D 6.9.x * r r r r r r r r r r r ",
"r r r r r r r r r r r - 8 9.9.x.b.b.b.b.b.b.b.b.b.b.v.9.9.9.9.9.9.9.9.J V V V V V V V V V V D 6.9.x * r r r r r r r r r r r ",
"r r r r r r r r r r r : 8 9.9.x.b.b.b.b.b.b.b.b.b.b.v.9.9.9.9.9.9.9.9.J V V V V V V V V V V D 6.9.x * r r r r r r r r r r r ",
"r r r r r r r r r r r : 8 9.9.x.b.b.b.b.b.b.b.b.b.b.v.9.9.9.9.9.9.9.9.J V V V V V V V V V V D 6.9.x * r r r r r r r r r r r ",
"r r r r r r r r r r r : 8 9.9.x.b.b.b.b.b.b.b.b.b.b.v.9.9.9.9.9.9.9.9.J V V V V V V V V V V D 6.9.x * r r r r r r r r r r r ",
"r r r r r r r r r r r : 8 9.9.x.b.b.b.b.b.b.b.b.b.b.v.9.9.9.9.9.9.9.9.J V V V V V V V V V V D 6.9.x * r r r r r r r r r r r ",
"r r r r r r r r r r r : 8 9.9.x.b.b.b.b.b.b.b.b.b.b.v.9.9.9.9.9.9.9.9.J V V V V V V V V V V D 6.9.x * r r r r r r r r r r r ",
"r r r r r r r r r r r : 8 9.9.x.b.b.b.b.b.b.b.b.b.b.v.9.9.9.9.9.9.9.9.J V V V V V V V V V V D 6.9.x * r r r r r r r r r r r ",
"r r r r r r r r r * o . 1 J J 7.q.q.q.q.q.q.q.q.q.q.7.J J J J J J J J Z V V V V V V V V V V V J J 2 . o & r r r r r r r r r ",
"r r r r r r r r r o E t.N.H.H.Q.`.`.`.`.`.`.`.`.`.`.Q.B.B.B.B.B.B.B.B.u.1.1.1.1.1.1.1.1.1.1.1.1.1.y.t./ . r r r r r r r r r ",
"r r r r r r r r r o ` /._..X.X.X.X.X.X.X.X.X.X.X.X.X X/./././././././.a.1.1.1.1.1.1.1.1.1.1.1.1.1.F./.t.. r r r r r r r r r ",
"l l l l r r r r r o ( D.E.{.{.{.{.{.{.{.{.{.{.{.{.{.'.D.D.D.D.D.D.D.D.&.Y Y Y Y Y Y Y Y Y Y Y Y Y p.D.) . r r r r r l l l l ",
"V V V B r r r r r o ( D.E.{.{.{.{.{.{.{.{.{.{.{.{.{.'.D.D.D.D.D.D.D.D.&.Y Y Y Y Y Y Y Y Y Y Y Y Y p.D.) . r r r r r B V V V ",
"p p p i r r r r r o ( D.E.{.{.{.{.{.{.{.{.{.{.{.{.{.'.D.D.D.D.D.D.D.D.&.Y Y Y Y Y Y Y Y Y Y Y Y Y p.D.) . r r r r r i p V V ",
"r r r r r r r r o ( C.W.'.{.{.{.{.{.{.{.{.{.{.{.{.{.'.D.D.D.D.D.D.D.D.&.Y Y Y Y Y Y Y Y Y Y Y Y Y ! u.S.;.o r r r r r r V V ",
"r r r r r r r r   ,.D.!.{.{.{.{.{.{.{.{.{.{.{.{.{._.E.D.D.D.D.D.D.D.D.a.&.Y Y Y Y Y Y Y Y Y Y Y Y Y <.D.i.  r r r r r r i i ",
"r r r r r r r r   ,.D.!.{.{.{.{.{.{.{.{.{.{.{.{.{.).D.D.D.D.D.D.D.D.D.D.=.Y Y Y Y Y Y Y Y Y Y Y Y Y <.D.i.  r r r r r r r r ",
"r r r r r r r r   ,.D.!.{.{.{.{.{.{.{.{.{.{.{.{.{.).D.D.D.D.D.D.D.D.D.D.=.Y Y Y Y Y Y Y Y Y Y Y Y Y <.D.i.  r r r r r r r r ",
"r r r r r r r r & W >.M.V.V.V.V.V.V.V.V.V.V.V.V.V.M.>.>.>.>.>.>.>.>.>.>.Q G F C C C C C C C C C C C Q >.( & r r r r r r r r ",
"r r r r r r r i V l r r r r r r r r r r r r r r r r r r r r r r r r r r i V B r r r r r r r r r r r r r r r r r r r r r r r ",
"r r r r r r r p V l r r r r r r r r r r r r r r r r r r r r r r r r r r i V B r r r r r r r r r r r r r r r r r r r r r r r "
};
