/* XPM */
static const char *P[] = {
/* columns rows colors chars-per-pixel */
"62 62 196 2 ",
"   c #020103",
".  c #090007",
"X  c #04040A",
"o  c #0C0009",
"O  c #040B09",
"+  c #0A0C0D",
"@  c #11000D",
"#  c #03130F",
"$  c #0E0412",
"%  c #070913",
"&  c #0B0D14",
"*  c #0A0C1A",
"=  c #150011",
"-  c #1A0014",
";  c #1E0119",
":  c #130A1B",
">  c #140819",
",  c #1B091F",
"<  c #0B1113",
"1  c #0F131A",
"2  c #101417",
"3  c #13151A",
"4  c #12191C",
"5  c #24001D",
"6  c #28001F",
"7  c #05231A",
"8  c #252018",
"9  c #140C24",
"0  c #1B0923",
"q  c #0E1124",
"w  c #0F1228",
"e  c #131424",
"r  c #161B25",
"t  c #13142E",
"y  c #191729",
"u  c #1B1D2A",
"i  c #131631",
"p  c #141936",
"a  c #161B3B",
"s  c #1B1A3D",
"d  c #250421",
"f  c #2B0022",
"g  c #240B27",
"h  c #310026",
"j  c #35002B",
"k  c #38002C",
"l  c #2B0C35",
"z  c #350632",
"x  c #330936",
"c  c #320B39",
"v  c #251437",
"b  c #30103E",
"n  c #351C3C",
"m  c #122425",
"M  c #1D232D",
"N  c #093528",
"B  c #1D243B",
"V  c #0F3930",
"C  c #272737",
"Z  c #2D2235",
"A  c #242C34",
"S  c #27303E",
"D  c #28323E",
"F  c #32303E",
"G  c #463C2D",
"H  c #4A3C3B",
"J  c #0A4131",
"K  c #0C513E",
"L  c #181E42",
"P  c #2D1443",
"I  c #2C1847",
"U  c #231C48",
"Y  c #291C4C",
"T  c #1A2047",
"R  c #1D234C",
"E  c #1F2653",
"W  c #242D49",
"Q  c #2D3748",
"!  c #333F48",
"~  c #252354",
"^  c #222A53",
"/  c #222A5C",
"(  c #382051",
")  c #2A345C",
"_  c #353E52",
"`  c #262F60",
"'  c #2A3362",
"]  c #2D3764",
"[  c #313D64",
"{  c #303C68",
"}  c #401C44",
"|  c #4C2C6E",
" . c #0F5441",
".. c #0E5944",
"X. c #115541",
"o. c #36434C",
"O. c #3C464B",
"+. c #3A4758",
"@. c #0F614A",
"#. c #106B51",
"$. c #117156",
"%. c #13785B",
"&. c #3C4A61",
"*. c #354269",
"=. c #394770",
"-. c #3D4C74",
";. c #3E547A",
":. c #404F58",
">. c #43525D",
",. c #545E52",
"<. c #7A6A4F",
"1. c #495967",
"2. c #44546C",
"3. c #404F76",
"4. c #435276",
"5. c #475871",
"6. c #4A5975",
"7. c #45557A",
"8. c #4A5B7E",
"9. c #515879",
"0. c #6F5270",
"q. c #4E606C",
"w. c #4F6274",
"e. c #4F617D",
"r. c #536676",
"t. c #806B5A",
"y. c #947678",
"u. c #148464",
"i. c #158968",
"p. c #3A9672",
"a. c #508F6C",
"s. c #978362",
"d. c #879470",
"f. c #AF9671",
"g. c #663B93",
"h. c #3F7796",
"j. c #4C5E80",
"k. c #4E6082",
"l. c #536686",
"z. c #586C87",
"x. c #566A89",
"c. c #5A6F8E",
"v. c #5D7283",
"b. c #5B708F",
"n. c #407C9A",
"m. c #5D7492",
"M. c #5B7F9A",
"N. c #617785",
"B. c #637987",
"V. c #60708A",
"C. c #647B8C",
"Z. c #617794",
"A. c #637995",
"S. c #9F7D87",
"D. c #8A6197",
"F. c #6E8796",
"G. c #68819A",
"H. c #738D9D",
"J. c #74AA81",
"K. c #4092AC",
"L. c #6E87A1",
"P. c #718BA4",
"I. c #7894A8",
"U. c #7994AC",
"Y. c #7A9CB2",
"T. c #5BBCCB",
"R. c #5BC5D2",
"E. c #67CAD7",
"W. c #77C6D3",
"Q. c #65D1DC",
"!. c #6ED3DF",
"~. c #6AD8E1",
"^. c #5BECF1",
"/. c #A99E8B",
"(. c #AD859B",
"). c #80AE84",
"_. c #ABA08E",
"`. c #809EB4",
"'. c #93A2AA",
"]. c #83A1B4",
"[. c #88A5B6",
"{. c #86A5BA",
"}. c #8BABBF",
"|. c #AEBAB7",
" X c #CEB185",
".X c #D6B78B",
"XX c #DAB897",
"oX c #E1BCA1",
"OX c #DAC599",
"+X c #EAC998",
"@X c #CFC4AA",
"#X c #C5C3B2",
"$X c #F4D7A2",
"%X c #FDDAA4",
"&X c #89AEC1",
"*X c #86B2C4",
/* pixels */
"k k k k k k k k k k k k k k k k k k k k k k k k k k k k k k j f 6 6 f j x / ~ k k k k k k k k k k k k k k k k k k k k k k k ",
"k k k k k k k k k k k k k k k k k k k k k k k k k k k k k k h =     - j x / Y k k k k k k k k k k k k k k k k k k k k k k k ",
"k k k k k k k c / Y k k k k k k k k k k k k f ; ; 6 j k k k h @ # N m ; f k k k k k k k k k k k k k k k k k k k k k k k k k ",
"k k k k k k k x ~ I k k k k k k k k k k k k -     @ f k k k h @ 7 $...  - k k k k k k k k k k k k k k k k k k k k k k k k k ",
"k k k k k k k k k k k k k k k k k k k k k k - O N V : - - - = . 7 $.$.K m - f k k k k k k k k k k k k k k k k k k k k k k k ",
"k k k k k k k k x z k k k k k k k k k k k k - <  ...7 # # # # # N $.i.i.J   6 k k k k k k k k k k k k k k k k k k k k k k k ",
"k k k k k k k c / Y k k k k k k k k k k k k f 5 4 N ..@.@.@.@.@.#.u.i.i.J   6 k k k k k k k k k k k k k k k k k k k k k k k ",
"k k k k c c c P / Y k k k k k k k k k k k k f 5 4 J %.i.i.i.i.i.i.i.i.i.J   6 k k k k k k k k k k k k k x c c c c c c c k k ",
"k k k z / / / / / Y k k k k k k k k k k k k - <  .%.u.i.i.i.i.i.i.i.i.i.J   6 k k k k k k k k k k k k k Y / / / / / / / k k ",
"k k k z Y Y Y Y Y I c x k k k k k k k k k k - # @.i.i.p.J.J.J.J.J.J.a.X.m - f k k k k k k k k k k k x c I Y Y Y Y Y Y Y k k ",
"k k k k k k k k k c / I k k k k k k k k k k - # @.i.i.J.$X%X%X%X%X%Xs.+ ; j k k k k k k k k k k k k I / c k k k k k k k k k ",
"k k k k k k k k k x I I b x k k k k k k k k - # @.p.).d.<.y.(.(.S.t.G   - k k k k k k k k k k k x b I I x k k k k k k k k k ",
"k k k k k k k k k k k b / I k k k k k k k k - < ..a.OXs.  ( g.g.| :     - k k k k k k k k k k k I / b k k k k k k k k k k k ",
"k k k k k k k k k k k x I c k k k k k k k k f 5 m ,.OXs.  ( g.g.| :     - k k k k k k k k k x P ~ / b k k k k k k k k k k k ",
"k k k k k k k k k k k k k k k k k k k k k k h 6 o G .Xf.G 0.D.D.0.H 8   = f h k k k k k k k I / / / b k k k k k k k k k k k ",
"k k k k k k k k k k k k k k k k k k k k k k - .   G .X+X XXXoXoXXX X<.O   o f k k k k k k k c I ~ / b k k k k k k k k k k k ",
"k k k k k k k k k k k k k k k k k k k k f 5 Z ! ! ,._.OX%X%X%X%X%X%X/.O.D C g 6 j k k k k k k k I / b k k k k k k k k k k k ",
"k k k k k k k k k k k k k k k k k c I x 5   1.].].I.A._.%X%X%X%X%X%X@X[.G.6.M @ f k k k k k k k I / b k k k k k k k k k k k ",
"k k k k k k k k k k k k k k k k k I R 0 Z 1.F.}.}.].I.'.#X#X#X#X#X#X|.}.Y.G.2.C , 6 j k k k k k I / b k k k k k k k k k k k ",
"k k k k k k k k k k k k k k k k k x g X +.}.}.}.}.}.}.}.&X&X&X&X&X&X&X}.}.{.G.2.3 = j k k k k k I / ~ I x k k k k k k k k k ",
"k k k k k k k k k k k k k k k k k k 6 X +.}.}.{.P.P.{.}.}.}.*XW.!.!.W.&X}.{.G.2.3 = j k k k k k I / / / c k k k k k k k k k ",
"k k k k k k k k k k k k k k k k j h d e >.`.`.U.b.c.U.].}.}.*X~.^.^.!.&X{.Y.m.&.1 = j k k k k k I / I c z k k k k k k k k k ",
"k k k k k k k k k k k k k k k k h - u +.e.A.A.b.-.-.c.P.}.}.*X~.^.^.!.&XI.m.3.^ & = j k k k k k I / b k k k k k k k k k k k ",
"k k k k k k k k k k k k k k k f d u Q e.6.+.+.+.) ] -.c.U.U.Y.Q.^.^.E.Y.m.3.^ i > 5 j k k k k k z c z k k k k k k k k k k k ",
"k k k k k k k k k k k k k k j - 2 +.e.x.o.+ + * T / ` -.c.b.M.R.^.^.T.m.3./ e $ f j k k k k k k k k k k k k k k k k k k k k ",
"k k k z ~ Y k k k k k k k f ; F 1.C.v.+.C - o X L ' =.7.x.8.;.n.K.K.h.-.-.*.r o f k k k k k k k k k k k k k k k k k k k k k ",
"k k k z / ~ k k k k k k k ; X r.}.}.N.3 - k - X L { k.x.x.=./ / / / / / -.e.M o f k k k k k k k k k k k k k k k k k k k k k ",
"k k k z / / ~ Y k k k k k ; X r.}.}.N.3 - k - X L { k.x.x.8.4.4.=.' ] 3.j.e.M o f k k k k k k k k k k k k k k k k k k k k k ",
"k k k z / / / ~ k k k k k ; X q.`.I.r.3 - k - $ a ) 7.l.x.x.x.x.8.] =.l.l.6.B $ d h k k k k k k k k k k k k k k k k k k k k ",
"k k k z / ~ k k k k k k k ;   +.z.o.Z d h k f 6 : i ) 3.x.x.x.x.8.] =.l.7.] ^ p > ; j k k k k k k k k k k k k k k k k k k k ",
"k k k z / ~ k k k k k h 6 g M Q _ y - h k k k h @ * R { 7.7.7.7.-.' { 7.) L E T % = j k k k k k k k k k k k k k k k k k k k ",
"k k / / / ~ k k k k k f o C 6.S > d h j k k k h @ * R / ' ' ' ' ` / / ' p % L T % = j k k k k k k k k k k k ~ / / / / / / / ",
"k k / / / ~ k k k k k 6   D l.A . f k k k k k h 5 > t L / / / / / / R p * X a T % = j k k k k k k k k k k k Y / / / / / / / ",
"k k k z / ~ k k k k k 6   D l.A . f k k k k k k k f . q / / / / / / a     X a T % = j k k k k k I / b k k k k k k k k k k k ",
"k k k z ~ Y k k k k k 6   o.P.Q   @ - - d k k k k h 5 , w v P P v t 9 ; o X a E a 9 - f k k k z I ~ c k k k k k k k k k k k ",
"k k k k k k k k k k k 6   :.{.>.3 3 &   w c k k k j h -   ; k k f o @ f = X a / / a % ; k k I / P k k k k k k k k k k k k k ",
"k k k k k k k k k k k 6   :.}.H.N.N.>.& w P x x x g = o   ; k k f o   @ . X a / / E L v x x I ~ c k k k k k k k k k k k k k ",
"k k k k k k k k k k k 6   :.}.}.[.H.1.e p / / / R B A A A n } } n u r r r u R / / / / / / / I k k k k k k k k k k k k k k k ",
"k k k k k k k k k z c d   :.}.}.I.o.y v U ~ ~ U 9 A B.H.H.V.9.9.6.6.5.5.5.2.] / / / / ~ ~ / I k k k k k k k k k k k k k k k ",
"k k k k k k k k k c / v - F r.P.H.A * l k k f g F q.Y.}.}.L.x.x.x.x.k.7.4.-.] E a a a l P / I k k k k k k k k k k k k k k k ",
"k k k k k k k k k x Y I c 0 + r.H.A * l k k - 3 v.{.}.}.}.L.x.x.x.x.7.` / / / T &     ; P / I k k k k k k k k k k k k k k k ",
"k k k k k k k k k k k b / T i Q o.3 @ h k k - 4 B.}.}.Y.P.A.x.x.k.3.{ / / / / T % o - f P / I k k k k k k k k k k k k k k k ",
"k k k k k k k k k k k x I ~ / e     = h k k - 3 v.{.{.P.x.l.l.e.4.) ^ / / / / T % = j k c I c k k k k k k k k k k k k k k k ",
"k k k k k k k k k k k k k P / v 6 6 f j k k - < 5.G.G.Z.x.7.[ W u q p / / / / T % = j k k k k k k k k k k k k k k k k k k k ",
"k k k k k k k k k k k k k P / I k k k k k k - & &.x.x.x.x.*.L : .   q / / / / T % = j k k k k k k k k k k k k k k k k k k k ",
"k k k k k k k k k k k k k P / I k k k k k k - & &.x.x.x.x.Q & 5 5 . q / / / / T % = j k k k k k k k k k k k k k k k k k k k ",
"k k k k k k k k k k k k k P / I k k k k k k - & &.x.x.x.x.S   6 f o q / / / / T % = j k k k k k k k k k k k k k k k k k k k ",
"k k k k k k k k k k k k k P / I k k k k k k - & &.x.x.x.x.S   6 f . q / / / / T % = j k k k k k k k k k k k k k k k k k k k ",
"k k k k k k k k k k k k k P / I k k k k k k - 2 w.P.P.P.P.!   6 h 5 , t T / / E p 9 ; f k k k k k k k k k k k k k k k k k k ",
"k k k k k k k k k k k k k P / I k k k k k k - 4 B.}.}.{.].+.. 6 k k 5   i / / / / a   - k k k k k k k k k k k k k k k k k k ",
"k k k k k k k k k k k k k x b I I c k k k k - 4 B.}.}.C.o.v 6 h k k 5   i / / / / a   - c I c k k k k k k k k k k k k k k k ",
"k k k k k k k k k k k k k k k I / P k k k k - 3 v.`.`.1.  ; k k k k 5   i / / / / a   - P / I k k k k k k k k k k k k k k k ",
"Y Y Y I k k k k k k k k k k k z c z k k k k - < 2.A.A.+.  ; k k k Y t   i / / / / a   9 ~ / ~ Y c k k k k k k k k k I Y Y Y ",
"/ / / ~ k k k k k k k k k k k k k k k k h 6 : t *.7.7.Q   ; k k k / a   i / / / / a   t / / / / P k k k k k k k k k ~ / / / ",
"c c c x k k k k k k k k k k k k k k k k 5   i ^ / ' ' a   ; k k k c 0   i / / / / a   , c c c c z k k k k k k k k k x c / / ",
"k k k k k k k k k k k k k k k k k k k k ;   p / / / / p   ; k k k k f - 9 p R / / a   - k k k k k k k k k k k k k k k k / / ",
"k k k k k k k k k k k k k k k k k k k k ;   p / / / / p   ; k k k k k k - X a / / a   - k k k k k k k k k k k k k k k k x x ",
"k k k k k k k k k k k k k k k k k k k k ;   p / / R t 9 5 f k k k k k k - X a / / a   - k k k k k k k k k k k k k k k k k k ",
"k k k k k k k k k k k k k k k k k k k k ;   i ~ ~ s X = j k k k k k k k ;   i R R i   - h j j j k k k k k k k k k k k k k k ",
"k k k k k k k k k k k k k k k k k k k k ;   0 c c g o = j k k k k k k k ;   % * * %   . @ 6 j j k k k k k k k k k k k k k k ",
"k k k k k k k x / Y k k k k k k k k k k ;   5 k k f . = j k k k k k k k ;                 6 k j k k k k k k k k k k k k k k ",
"k k k k k k k c / Y k k k k k k k k k k ;   5 k k f . = j k k k k k k k ;                 6 k k k k k k k k k k k k k k k k "
};
