/* XPM */
static const char *_[] = {
/* columns rows colors chars-per-pixel */
"32 32 4 1 ",
"  c #595652",
". c #696A6A",
"X c #847E87",
"o c None",
/* pixels */
"oooooooooooooooooooooooooooooooo",
"oooooooooooooooooooooooooooooooo",
"oooooooooooooooooooooooooooooooo",
"oooooooooooooooooooooooooooooooo",
"oooooooooooooooooooooooooooooooo",
"oooooooooooooooooooooooooooooooo",
"oooooooooooooooooooooooooooooooo",
"oooooooooooooooooooooooooooooooo",
"oooooooooooooooooooooooooooooooo",
"oooooooooooooooooooooooooooooooo",
"ooooooooooooo        ooooooooooo",
"ooooooooooo   ......  oooooooooo",
"oo      oo  ..XXXXXX. oooooooooo",
"o  ....    .XXXXXXXX.    ooooooo",
"o .XXXX.. .XXXXXXXXX. ..      oo",
"  .XXXXX.  ..XXXXXXX. .X..... oo",
" .XXXXXXX.   .XXXXXX. .XXXXX.   ",
" .XXXXXX.. .  .XXXXX. .XXXXX. ..",
"  .XX...   ..  ..XX.. .XXXXX. .X",
".  ..    ..XX.   ..    ..XXX. .X",
"X.     ..XXXXX..    ..   ...   .",
"...... .XXXXXXXX.. .XX..     . .",
"   ... .XXXXXXXXX. .XXXX......  ",
"..     .XXXXXXXXX. .XXXXXXXXX. .",
"XX.... .....XXX..  .XXXXXXXX.. .",
"XXXXX.      ...    ..XXX....   .",
"XXXXX. ....     ..   ...     ..X",
"XXXX.  .XXX.. ..XX..     ... ..X",
"XXX.  .XXXXX.  .XXXX.  ..XX.   .",
"XXX. .XXXXXXX.  .XXXX. .XXXX..  ",
"XXX. .XXXXXXXX. .XXXX. .XXXXXX. ",
"XXX. .XXXXXXXX. .XXXX. .XXXXXX. "
};
