/* XPM */
static const char *E_1[] = {
/* columns rows colors chars-per-pixel */
"64 64 196 2 ",
"   c #010102",
".  c #090007",
"X  c #04040A",
"o  c #0B020B",
"O  c #11010E",
"+  c #080612",
"@  c #070813",
"#  c #0B0E17",
"$  c #0B0A1A",
"%  c #150011",
"&  c #1A0015",
"*  c #19081A",
"=  c #08131B",
"-  c #131618",
";  c #15141B",
":  c #23001C",
">  c #0C0F21",
",  c #1A0A25",
"<  c #0D1127",
"1  c #0F132A",
"2  c #111225",
"3  c #1A1B23",
"4  c #11132B",
"5  c #131631",
"6  c #161936",
"7  c #141B3C",
"8  c #2D0023",
"9  c #250822",
"0  c #2D042A",
"q  c #310026",
"w  c #36002B",
"e  c #38002C",
"r  c #29192A",
"t  c #350431",
"y  c #330937",
"u  c #380935",
"i  c #3A0E3A",
"p  c #38103B",
"a  c #0F2A39",
"s  c #132538",
"d  c #2C2D30",
"f  c #292937",
"g  c #2D3131",
"h  c #2A343A",
"j  c #373D3D",
"k  c #41143D",
"l  c #1A1A43",
"z  c #211D47",
"x  c #16254B",
"c  c #1B224B",
"v  c #122650",
"b  c #1E2653",
"n  c #1A2A5A",
"m  c #232B46",
"M  c #262F4D",
"N  c #2B344B",
"B  c #373A47",
"V  c #262354",
"C  c #292655",
"Z  c #222A5C",
"A  c #2B3656",
"S  c #2C3658",
"D  c #2E395C",
"F  c #19336C",
"G  c #1C3571",
"H  c #222D62",
"J  c #283465",
"K  c #2C3765",
"L  c #24316B",
"P  c #323E65",
"I  c #303B68",
"U  c #253472",
"Y  c #273876",
"T  c #263A7D",
"R  c #431740",
"E  c #4C1E44",
"W  c #413A43",
"Q  c #3B4144",
"!  c #3A4456",
"~  c #37446E",
"^  c #3A486A",
"/  c #27457C",
"(  c #3E4C76",
")  c #484D4F",
"_  c #4D5555",
"`  c #42515A",
"'  c #415077",
"]  c #4C5873",
"[  c #415178",
"{  c #47587E",
"}  c #4A597E",
"|  c #586265",
" . c #586C7A",
".. c #626C6C",
"X. c #667271",
"o. c #6D7978",
"O. c #717474",
"+. c #263D84",
"@. c #2A3F84",
"#. c #274C84",
"$. c #20428B",
"%. c #2A5389",
"&. c #284798",
"*. c #245198",
"=. c #2B6B9D",
"-. c #2B4DA5",
";. c #2853AF",
":. c #3056A7",
">. c #2D55B5",
",. c #2E59BC",
"<. c #2F73AA",
"1. c #4B5C81",
"2. c #505C80",
"3. c #566789",
"4. c #5D738E",
"5. c #5E7494",
"6. c #617785",
"7. c #667C88",
"8. c #607692",
"9. c #677E9C",
"0. c #707F94",
"q. c #5E78B6",
"w. c #687CAC",
"e. c #2F5CC3",
"r. c #305DC6",
"t. c #315FCB",
"y. c #326DC4",
"u. c #3161CC",
"i. c #337BC1",
"p. c #3163D2",
"a. c #3367DB",
"s. c #3368DC",
"d. c #3576DB",
"f. c #3877DE",
"g. c #367CE0",
"h. c #3187BA",
"j. c #69819F",
"k. c #6F899F",
"l. c #738D9D",
"z. c #6D86A1",
"x. c #728DA7",
"c. c #748EA9",
"v. c #7691A8",
"b. c #7894AD",
"n. c #7D9AB1",
"m. c #348CC3",
"M. c #3690CA",
"N. c #3685D7",
"B. c #3895D2",
"V. c #399CD8",
"C. c #39A1DC",
"Z. c #3785E0",
"A. c #3887E2",
"S. c #388DE3",
"D. c #3992E5",
"F. c #3BA6E4",
"G. c #3CA4E8",
"H. c #3DABEA",
"J. c #6B91E5",
"K. c #849394",
"L. c #8097A8",
"P. c #819EB4",
"I. c #9DADAD",
"U. c #83A1B6",
"Y. c #85A4B9",
"T. c #89A7BC",
"R. c #8BABBF",
"E. c #A6B8B8",
"W. c #8EADC0",
"Q. c #97AEC7",
"!. c #93B2C3",
"~. c #99B7C6",
"^. c #9DB9C9",
"/. c #9ABADF",
"(. c #A0B9C3",
"). c #A2BECB",
"_. c #A5C1CD",
"`. c #ACC5CE",
"'. c #B4C9CA",
"]. c #ADC8D1",
"[. c #B2CCD3",
"{. c #BAD1D5",
"}. c #BCD4D9",
"|. c #C6DCDB",
" X c #C5DCDD",
".X c #CAE0DF",
"XX c #CCDBE3",
"oX c #CCE2E1",
"OX c #D2E5E5",
"+X c #D7E7E7",
"@X c #E2EEEE",
"#X c #E5F0F0",
"$X c #E6F1F0",
"%X c #EAF2F2",
"&X c #ECF3F8",
"*X c #F1F7F7",
/* pixels */
"e e e e e e e e e e e e e e e e e e e e e e e e e e e e e e e e e e e e e t V V t e e e e e e e e e e e e e e e e e e e e e e e ",
"e e e e e e e e t t e e e e e e e e e e e e e e e e e e e e e e e e e e e t V V t e e e e e e e e e e e e e e e e e e e e e e e ",
"e e e e e e e t V V t e e e e e e e e e e e e e e e e e e e e e e e e e e e t t e e e e e e e e e e e e e e e e e e e e e e e e ",
"e e e e e e e t V V t e e e e e e e e e e : % % % % % % % % % % % % % % % % % % % % % % % % % % & q e e e e e e e e e e e e e e ",
"e e e e e e e e t t e q & & & & & & & & & W o.o.o.o.o.o.o.o.o.o.o.o.o.o.o.o.o.o.o.o.o.o.o.o.o.o...r & & : w e e e e e e e e e e ",
"e e e e e e e e t 0 : 9 ) _ _ _ _ _ _ _ _ K.oXoXoXoXoXoXoXoXoXoXoXoXoXoXoXoXoXoXoXoXoXoXoXoXoXoX|.X._ _ W 8 w e e e e e e e e e ",
"e e e e e e e t z f g ) '.oXoXoXoXoXoXoXoXoXoXoXoXoXoXoXoXoXoXoXoXoXoXoXoXoXoXoXoXoXoXoXoXoXoXoXoXoXoXoXI.g 0 w e e e e e e e e ",
"e e e e t t t y 2 | {.{..XoXoXoXoXoXoXoXoXoXoXoXoXoXoXoXoXoXoXoXoXoXoXoXoXoXoXoXoXoXoXoXoXoXoXoXoXoXoXoX XI.3 0 t t t t t t e e ",
"e e e t V V V V 1 ..oXoXoXoXoXoXoXoXoXoXoXoXoXoXoXoXoXoXoXoXoXoXoXoXoXoXoXoXoXoXoXoXoXoXoXoXoXoXoXoXoXoX XE.3 z V V V V V V t e ",
"e e e t V V V V 2 O.$XoXoXoXoXoXoXoXoXoXoXoXoXoXoXoXoXoXoXoXoXoXoXoXoXoXoXoXoXoXoXoXoXoXoXoXoXoXoXoXoX[.^.L.; V V V V V V V t e ",
"e e e e t t t t & | XX$X$X$X+XoXoXoXoXoXoXoXoXoXoXoXoXoXoXoXoXoXoXoXoXoXoXoXoXoXoX X`._._._._._._._._.~.R.l.; 0 t t t t t t e e ",
"e e e e e e e e & ` ^.XX@X$X$X@X@X@X@X@X@X@X@X@X@X@X@X+XoXoXoXoXoXoXoX X[.[.[.[.[.).z.9.9.9.9.9.9.9.9.b.R.l.; q e e e e e e e e ",
"e e e e e e e e : B l.!. XoX@X*X*X*X*X*X*X*X*X*X*X*X*X+X}.}.}.}.}.}.}.`.b.c.c.c.c.j.( ~ ~ ~ ~ ~ ~ ~ ~ 3.k. .* q e e e e e e e e ",
"e e e e e e e e w & h P.{. X XoXoXoXoXoXoXoXoXoXoXoXoX[.W.W.W.W.W.W.W.n.{ ( ( ( ( ~ D D D D D D D D ~ ( ! # q w e e e e e e e e ",
"e e e e e e e e e & 3 3.T.~.{.oXoXoXoXoXoXoXoX XoX X X`.R.R.R.Y.T.Y.Y.v.^ P P P P A 2 # # # # # # # A 5. .o q e e e e e e e e e ",
"e e e e e e e e e & f b.R.[. XoXoXoXoXoXoXoX}.). X).~.!.R.R.Y.3.x.z.} ^ 2 # # # # 2 M A A A A A A S 4.P.6.o q e e e e e e e e e ",
"e e e e e e e e e & h Y.!.}.oXoXoXoXoXoXoXoX X{. X{.[.).R.R.T.x.P.n.z.8.A m m m m M ~ ~ ~ ~ ~ ~ ~ ~ z.6.f 8 w e e e e e e e e e ",
"e e e e e e e e e 8 r ` ] 0.`.oXoXoXoXoXoXoXoXoXoXoXoX].R.R.R.R.R.R.R.n.' ~ ~ ~ ~ ~ K K K K K K K K ^ N : w e e e e e e e e e e ",
"e e e e e e e e e e 8 O X L w.Q././././././././././.Q.L.j.j.j.j.j.j.j.5.~ I I I I K Z Z Z Z Z H +.+.5 2 t e e e e e e e e e e e ",
"e e e e e e e e e e w 8 $ ;.&.:.f.f.f.f.f.f.f.f.f.u.@.Z J Y Y Y Y Y Y U Z Z Z Z Z Z Z Z Z Z Z U t.a.v 2 y t e e e e e e e e e e ",
"e e e e e e e e e e e 8 $ ;.p.N.G.G.G.G.G.G.G.F.M./ H Z T t.u.u.u.u.u.,.L Z Z Z Z Z Z Z Z Z Z U u.a.v 2 V V t e e e e e e e e e ",
"e e e e e e e e e e e 8 $ ;.s.A.H.H.H.H.H.H.H.B.#.H Z Z +.p.a.s.s.s.s.r.L Z Z Z Z Z Z Z Z Z Z U u.a.v 2 V V t e e e e e e e e e ",
"e e e e e e e e e e e 8 $ ;.s.A.H.H.H.H.H.H.M.#.H Z Z Z H &.p.s.s.s.s.r.L Z Z Z Z Z Z Z Z Z Z U u.a.v 2 y t e e e e e e e e e e ",
"e e e e e e e e e e e 8 $ ;.s.A.H.H.H.H.H.m.%.Z Z Z Z Z Z U u.s.s.s.s.r.L Z Z Z Z Z Z Z Z Z Z U u.a.v 2 t e e e e e e e e e e e ",
"e e e e e e e e e e e 8 $ ;.s.A.H.H.H.H.M.%.Z Z Z Z Z Z Z L -.p.s.s.s.r.L Z Z Z Z Z Z Z Z Z Z U u.a.v & e e e e e e e e e e e e ",
"e e e e t t e e e e e 8 @ &.p.A.H.H.F.m./ L L Z Z Z Z Z Z Z H e.s.s.s.r.L Z Z Z Z Z Z Z Z Z Z U u.a.v & e e e e e e e e e e e e ",
"e e e t V V t e e e e 8 o b -.N.H.F.h.a x &.;.H Z Z Z Z Z Z H >.p.s.s.r.L Z Z Z Z Z Z Z Z Z Z U u.a.v & e e e e e e e e e e e e ",
"e e e t V V y t e e e 8 o c L =.C.h.a X T p.>.H Z Z Z Z Z Z Z L >.s.s.r.L Z Z Z Z Z Z Z Z Z Z U u.p.x & e e e e e e e e e e e e ",
"e e e t V Z V V t e e 8 o c Z x a s 9 . $.s.>.H Z Z Z Z Z Z Z Z ;.s.s.r.L Z Z Z Z Z Z Z Z Z Z U ,.n , q e e e e e e e e e e e e ",
"e e e t V Z V V t e e 8 o c 7 , : : q o $.s.>.H H =.<.%.Z Z Z Z T >.s.r.L Z Z Z Z Z Z Z Z Z Z n v , 8 e e e e e e e e e e e e e ",
"e e e t V V y t e e e 8 o 1 * : e e q o $.s.>.H J M.H.i.+.Z Z Z Z &.s.r.L Z Z Z Z Z Z Z Z Z b 4 * q e e e e e e e e e e e e e e ",
"e e t y V V t e e e e q % o 8 e e e q o $.s.>.L %.B.H.S.e.T H Z Z +.e.e.L Z Z b c Z Z Z Z b 5 % q e e e e e e e t t t t t t t t ",
"e t V V Z V t e e e e w w w w e e e q o $.s.>./ B.H.H.S.a.e.T H Z Z +.e.L Z b 1 $ Z Z Z b 1 O q w e e e e e e t V V V V V V V V ",
"e t V V Z V t e e e e w w q w e e e q o $.s.,.#.V.H.H.S.s.a.r.T Z Z T >.H b 2 X $ Z Z b <   O w e e t t e e e t V V V V V V V V ",
"e e t y V V t e e e e q O o : e e e q o $.s.d.B.F.H.H.S.s.s.a.r.+.Z H H $ @ 6 < $ Z b >     O w e t V V t e e e t t t t t t t t ",
"e e e t V V t e e e e 8 + G 7 : e e q o $.s.g.H.H.H.H.S.s.s.s.s.,.+.Z c X   7 5 X 1 c @     O 8 & % $ 6 t e e e e e e e e e e e ",
"e e e e t t e e e e e 8 $ ;.&.l : w q o $.f.D.H.H.H.H.S.s.s.s.s.s.,.+.b 5 4 c 5 X 5 c @     . , n F < & e e e e e e e e e e e e ",
"e e e e e e e e e e e 8 $ ;.s.*.s 8 q o $.A.H.H.H.H.H.S.s.s.s.s.s.s.e.+.H Z Z 7 5 Z b @     X 7 e.a.v & e e e e e e e e e e e e ",
"e e e e e e e e e e e 8 $ ;.s.Z.<.6 9 o $.S.H.H.H.H.H.S.s.s.s.s.s.s.a.e.L Z Z Z Z Z b @   X < L u.a.v & e e e e e e e e e e e e ",
"e e e e e e e e e e t 0 $ ;.s.A.F.h.s = =.G.H.H.H.H.H.S.s.s.s.s.s.s.s.r.L Z Z Z Z Z b @   4 b U u.a.v & e e e e e e e e e e e e ",
"e e e e e e e e e t V z $ ;.s.A.H.F.m.m.V.H.H.H.H.H.H.S.s.s.s.s.s.s.s.r.L Z Z Z Z Z b @ 5 b Z U u.a.v & e e e e e e e e e e e e ",
"e e e e e e e e e t V z $ ;.s.A.H.H.H.H.H.H.H.H.H.H.H.S.s.s.s.s.s.s.s.r.L Z Z Z Z Z Z c b Z Z U u.a.v & e e e e e e e e e e e e ",
"e e e e e e e e e e t 0 $ ;.s.A.H.H.H.H.H.H.H.H.H.H.H.S.s.s.s.s.s.s.s.r.L Z Z Z Z Z Z Z Z Z Z U u.a.v & e e e e e e e e e e e e ",
"e e e e e e e e e e e 0 $ ;.s.A.H.H.H.H.H.H.H.H.H.H.H.S.s.s.s.s.s.s.s.r.L Z Z Z Z Z Z Z Z Z Z U u.a.v & e e e e e e e e e e e e ",
"e e e e e e e e e e e 8 $ ;.s.A.H.H.H.H.H.H.H.H.H.H.H.S.s.s.s.s.s.s.s.r.L Z Z Z Z Z Z Z Z Z Z U u.a.v & e e e e e e e e e e e e ",
"e e e e e e e e e e e 8 $ ;.s.A.H.H.H.H.H.H.H.H.H.H.H.S.s.s.s.s.s.s.s.r.L Z Z Z Z Z Z Z Z Z Z U u.a.v & e e e e e e e e e e e e ",
"e e e e e e e e e e e 8 $ ;.s.A.H.H.H.H.H.H.H.H.H.H.H.S.s.s.s.s.s.s.s.r.L Z Z Z Z Z Z Z Z Z Z U u.a.v & e e e e e e e e e e e e ",
"e e e e e e e e e e e 8 $ ;.s.A.H.H.H.H.H.H.H.H.H.H.H.S.s.s.s.s.s.s.s.r.L Z Z Z Z Z Z Z Z Z Z U u.a.v & e e e e e e e e e e e e ",
"e e e e e e e e e e e 8 $ ;.s.A.H.H.H.H.H.H.H.H.H.H.H.S.s.s.s.s.s.s.s.r.L Z Z Z Z Z Z Z Z Z Z U u.a.v & e e e e e e e e e e e e ",
"e e e e e e e e e 8 : & + +.-.y.S.S.S.S.S.S.S.S.S.S.S.y.-.-.-.-.-.-.-.&.H Z Z Z Z Z Z Z Z Z Z L &.-.7 o : : w e e e e e e e e e ",
"e e e e e e e e e & - j Q ] 3.q.J.J.J.J.J.J.J.J.J.J.J.q.2.2.2.2.2.2.2.} ' ( ( ( ( ( ( ( ( ( ( ( ( ( ! j d o q e e e e e e e e e ",
"e e e e e e e e e & j '.{.@X%X%X&X&X&X&X&X&X&X&X&X&X&XOX{.{.{.{.{.{.{.`.P.b.b.b.b.b.b.b.b.b.b.b.b.b.(.[.K.O q e e e e e e e e e ",
"e e e e e e e e e & h R.~. XOXOXOXOXOXOXOXOXOXOXOXOXOX[.!.!.!.!.!.!.!.U.1.[ [ [ [ [ [ [ [ [ [ [ [ [ c.!.7.o q e e e e e e e e e ",
"t t t t e e e e e & h Y.!.}.oXoXoXoXoXoXoXoXoXoXoXoXoX].R.R.R.R.R.R.R.n.' ~ ~ ~ ~ ~ ~ ~ ~ ~ ~ ~ ~ ~ z.R.6.o q e e e e e t t t t ",
"V V V V t e e e e & h Y.!.}.oXoXoXoXoXoXoXoXoXoXoXoXoX].R.R.R.R.R.R.R.n.' ~ ~ ~ ~ ~ ~ ~ ~ ~ ~ ~ ~ ~ z.R.6.o q e e e e t V V V V ",
"V V V V t e e e 8 f  .R.`. XoXoXoXoXoXoXoXoXoXoXoXoXoX].R.R.R.R.R.R.R.n.' ~ ~ ~ ~ ~ ~ ~ ~ ~ ~ ~ ~ ~ 3.v.v.! 9 w e e e t V V Z Z ",
"t t t t e e e e & ` R.~. XoXoXoXoXoXoXoXoXoXoXoXoXoX}.).R.R.R.R.R.R.R.P.3.( ~ ~ ~ ~ ~ ~ ~ ~ ~ ~ ~ ~ ~ 5.R.l.; q e e e e t y V Z ",
"e e e e e e e e & ` R.~. XoXoXoXoXoXoXoXoXoXoXoXoXoX_.R.R.R.R.R.R.R.R.R.U.{ ~ ~ ~ ~ ~ ~ ~ ~ ~ ~ ~ ~ ~ 5.R.l.; q e e e e e t V V ",
"e e e e e e e e & ` R.~. XoXoXoXoXoXoXoXoXoXoXoXoXoX).R.R.R.R.R.R.R.R.R.Y.} ~ ~ ~ ~ ~ ~ ~ ~ ~ ~ ~ ~ ~ 5.R.l.; q e e e e e e t t ",
"e e e e e e e e & ` R.~. XoXoXoXoXoXoXoXoXoXoXoXoXoX).R.R.R.R.R.R.R.R.R.Y.} ~ ~ ~ ~ ~ ~ ~ ~ ~ ~ ~ ~ ~ 5.R.l.; q e e e e e e e e ",
"e e e e e e e e q u R R E E E E E E E E E E E E E E R R R R R R R R R R k p C C i u u u u u u u u u u i R k q w e e e e e e e e ",
"e e e e e e e e t t e e e e e e e e e e e e e e e e e e e e e e e e e e e t V V t e e e e e e e e e e e e e e e e e e e e e e e ",
"e e e e e e e t V V t e e e e e e e e e e e e e e e e e e e e e e e e e e t V V t e e e e e e e e e e e e e e e e e e e e e e e ",
"e e e e e e e t V V t e e e e e e e e e e e e e e e e e e e e e e e e e e t V V t e e e e e e e e e e e e e e e e e e e e e e e "
};
