/* XPM */
static const char *C[] = {
/* columns rows colors chars-per-pixel */
"64 64 162 2 ",
"   c #37012C",
".  c #38002C",
"X  c #35092B",
"o  c #3D0A2D",
"O  c #311E28",
"+  c #350431",
"@  c #330936",
"#  c #3B0B31",
"$  c #3F1030",
"%  c #2F2127",
"&  c #2E272E",
"*  c #33232A",
"=  c #342A2A",
"-  c #3C2F2E",
";  c #3D302F",
":  c #2E2631",
">  c #3F3130",
",  c #410C2C",
"<  c #44102B",
"1  c #48152C",
"2  c #401030",
"3  c #51232B",
"4  c #562A2B",
"5  c #5B2C2C",
"6  c #42322D",
"7  c #4A3D2F",
"8  c #57312F",
"9  c #5F312D",
"0  c #433331",
"q  c #4B3733",
"w  c #4C3A35",
"e  c #4E3C38",
"r  c #523134",
"t  c #5C3735",
"y  c #513D35",
"u  c #5C3934",
"i  c #553F39",
"p  c #63352E",
"a  c #67392E",
"s  c #693D2E",
"d  c #653B34",
"f  c #6B3D31",
"g  c #564235",
"h  c #5C4436",
"j  c #5B4439",
"k  c #5F4A3A",
"l  c #6B402F",
"z  c #6C4235",
"x  c #634B3A",
"c  c #734535",
"v  c #734A33",
"b  c #794937",
"n  c #744D39",
"m  c #7B4E39",
"M  c #635038",
"N  c #785133",
"B  c #71513F",
"V  c #7E523B",
"C  c #26254D",
"Z  c #2C224B",
"A  c #33274A",
"S  c #262354",
"D  c #292250",
"F  c #232854",
"G  c #22295B",
"H  c #754E40",
"J  c #7A5641",
"K  c #814E39",
"L  c #855B36",
"P  c #84533B",
"I  c #8A563D",
"U  c #87583D",
"Y  c #8D5A3E",
"T  c #905C3F",
"R  c #92633E",
"E  c #845E40",
"W  c #915D40",
"Q  c #956341",
"!  c #9A6742",
"~  c #926943",
"^  c #9D6C44",
"/  c #A06F45",
"(  c #A47447",
")  c #A87747",
"_  c #A57846",
"`  c #A97A47",
"'  c #A77648",
"]  c #AB7B48",
"[  c #AB8046",
"{  c #AE8049",
"}  c #AF8849",
"|  c #B38647",
" . c #B3844B",
".. c #B68A4A",
"X. c #BB8C4D",
"o. c #BE924D",
"O. c #B88D52",
"+. c #BFA94A",
"@. c #C3954D",
"#. c #C59A4E",
"$. c #CA9C4F",
"%. c #C69E52",
"&. c #CC9E50",
"*. c #C7A34E",
"=. c #CDA14F",
"-. c #C6AC4B",
";. c #C8AE49",
":. c #CDB64A",
">. c #CEB84A",
",. c #D5BB4D",
"<. c #D9BE4F",
"1. c #CEA150",
"2. c #CBA759",
"3. c #D2A551",
"4. c #D4AA51",
"5. c #CDB750",
"6. c #CFBA51",
"7. c #D5B452",
"8. c #D9B352",
"9. c #DCBC53",
"0. c #D8B258",
"q. c #C2B073",
"w. c #D7C04E",
"e. c #D9C24D",
"r. c #DCC94E",
"t. c #DDC253",
"y. c #DEC955",
"u. c #DCC95B",
"i. c #E1C554",
"p. c #E3CB53",
"a. c #E2CC58",
"s. c #E6D053",
"d. c #E8D353",
"f. c #E9D652",
"g. c #EAD754",
"h. c #EAD952",
"j. c #E7D259",
"k. c #EAD75A",
"l. c #EBDA59",
"z. c #ECDB5B",
"x. c #EBDD5F",
"c. c #D2C271",
"v. c #D5C673",
"b. c #DECF76",
"n. c #D3C578",
"m. c #D6C97B",
"M. c #E9D761",
"N. c #ECDC61",
"B. c #ECDD61",
"V. c #E2D67C",
"C. c #E4D97F",
"Z. c #EEDE7B",
"A. c #EEE061",
"S. c #F0E679",
"D. c #D5C880",
"F. c #E3D883",
"G. c #EBDF80",
"H. c #E6DE8C",
"J. c #EFE487",
"K. c #F3EB89",
"L. c #F5EE8A",
"P. c #F4EE90",
/* pixels */
". . . . . . . . . . . . . . . . . . . . . . . o o . . . . . . . . . . . . + S S + . . . . . . . . . . . . . . . . . . . . . . . ",
". . . . . . .   + +   . . . . . . . . . . . o 4 d , . . . . . . . . . . . + D D + . . . . . . . . . . . . . . . . . . . . . . . ",
". . . . . . . + D D + . . . . . . . . . . . o z q.d o . . . . . . . . . .   + +   . . . . . . . . . . . . . . . . . . . . . . . ",
". . . . . . . + D D + . . . . . . . . . . . o z n.J , . . . . . . . . . . . . . . . . . . . . . . . . . . . . . . . . . . . . . ",
". . . . . . .   + +   . . . . . . . . . . . , v u.m.H , . . . . . . . . . . . . . . . . . . . . . . . . . . . . . . . . . . . . ",
". . . . . . .   + +   . . . . . . . . . . o 9 [ a.K.D.H , . . . . . . . . . . . . . . . . . . . . . . . . . . . . . . . . . . . ",
". . . . . . . + D D + . . . . . . . . . . o p  .%.M.P.D.d o . . . . . . . . . . . . . . . . . . . . . . . . . . . . . . . . . . ",
". . .   + + + @ S S + . . . . . . . . . . o p { @.j.L.H.J , . . . . . . . . . . . . . . . . . . . . . . .   + + + + + + + +   . ",
". . . + D S S S G S + . . . . . . . . . . o p { @.p.A.K.D.H , . . . . . . . . . . . . . . . . . . . . . . + D S S S S S S D + . ",
". . . + D S S S S D @ +   . . . . . . . . , f  .o.t.g.A.K.D.H , . . . . . . . . . . . . . . . . . . . o 3 # D S S S S S S D + . ",
". . .   + + + + + @ D D + . . . . . . . o 9 _ X.#.9.p.g.A.K.D.d o . . . . . . . . . . . . . . . . . o 3 4 Z @ + + + + + + +   . ",
". . . . . . . . . + D D @ +   . . . . . o p { o.9.s.i.p.g.A.C.J , . . . . . . . . . . . . . . . . . , p 8 Z + . . . . . . . . . ",
". . . . . . . . .   + @ D D + . . . . . o p { @.p.i.t.t.i.g.x.v.n , . . . . . . . . . . . . . . . , z ^ p #   . . . . . . . . . ",
". . . . . . . . . . . + D D + . . . . . , f  .@.9.4.4.4.9.p.h.l.6.v , . . . . . . . . . . . . . , v ;. .p o . . . . . . . . . . ",
". . . . . . . . . .     + +   . . . . o 9 _ o.7.4.3.4.3.4.i.f.z.S.5.a o . . . . . . . . . . . 2 B >.t.| p o . . . . . . . . . . ",
". . . . . . . . . . . . . . . . . . . o p { o.8.4.4.8.4.4.9.i.g.z.r.N , . . . . . . . . . . , H v.j.#. .p o . . . . . . . . . . ",
". . . . . . . . . . . . . . . . . . . o p { X.3.3.3.4.3.3.4.t.p.f.h.>.v , . . . . . . . . , H m.B.p.@.{ p o . . . . . . . . . . ",
". . . . . . . . . . . . . . . . .   + , f  .@.3.3.3.3.3.3.4.t.i.p.h.h.>.a o . . . . . . , H D.K.l.t.o.{ p o . . . . . . . . . . ",
". . . . . . . . . . . . . . . . . + Z t _ o.7.4.4.3.3.3.3.4.i.d.p.f.h.e.v , . . . . . o d D.K.B.p.9.o.{ p o . . . . . . . . . . ",
". . . . . . . . . . . . . . . . . + Z d ] X.3.4.8.4.3.3.4.9.i.d.i.t.p.4.X.p o . . . . , J C.B.i.i.p.@. .z , . . . . . . . . . . ",
". . . . . . . . . . . . . . . . .   # p { X.3.3.4.3.4.4.9.i.s.9.7.#.3.3.@.a o . . . , n v.x.s.8.9.9.o.X._ t o . . . . . . . . . ",
". . . . . . . . . . . . . . . . . . , f  .X.3.4.4.4.9.9.p.p.7. .] X.3.3.@.a o . . , v >.l.s.8.3.4.9.o.X.{ d o . . . . . . . . . ",
". . . . . . . . . . . . . . . . . o 5 (  .X.$.7.7.7.7. .] { ] _ ' X.3.3.@.a o . , z :.f.s.8.3.4.4.9.o.X.{ p o . . . . . . . . . ",
". . . . . . . . . . . . . . . . . o 9 I W Q _ ] ] ] ] _ ( _  ._ ' X.3.3.@.a o o p X.4.t.7.3.4.8.4.9.o.X.{ p o . . . . . . . . . ",
". . . . . . . . . . . . . . . . . o 5 K Y Y W ( ( _ ( ( ( )  .' ' X.$.3.@.d o o a @.=.| #.=.4.4.9.9.o.X.{ p o . . . . . . . . . ",
". . .   + +   . o o o . . . . . . . , p Q Y Y ^ _  ._ ( ) .. ._ ]  . .=.@.d o o a @.=.] ] { 4.7.9.9.X.X._ 9 o . . . . . . . . . ",
". . . + D D + o 4 s d , o o o o . . o 5 P I I W ( _ _ ] X.@.] _  .X.] $.@.a o o a @.1.X._ _ ] ]  .*.^ ( d , . . . . . . . . . . ",
". . . + S S @ # s -.c.V l z z a , . . , p P I Y ^ ( _  . .] ( ) X.X.] $.@.a o o a @.3.X.' _  ._ ( Q I a , . . . . . . . . . . . ",
". . . + S G S Z 9  .y.w.y.V.V.:.v , . o 4 c P I W ( _ _ _ ( _  .X.X.] $.@.a o , c #.1.X.' ( _ ( ^ Y K 5 o . . . . . . . . . . . ",
". . . + S G S D $ z X.#.p.l.l.f.>.c , . , 5 c I T ] ' ( ( ( ] X.$. .] $.@.a , p X.=.@.X.' ( ( ( W P p , . . . . . . . . . . . . ",
". . . + S S @ + o a X.@.4.9.i.f.p.o.p o o 4 f P I Q ] ] ' ]  .o.@.! { =.@.a , a @.3.&.X.' ( ( ^ Y K 5 o . . . . . . . . . . . . ",
".   + @ S S + . o 9 ` X.1.4.4.9.4.#.c , . , 5 c P Y (  .X.X.o.@.! ^ ,.0.#.a , a @.$.@.@.] ( ^ W P p , . . . .   + + + + + + + + ",
". + D S G S + . . , f  .@.3.3.$. .#.X.f , o 4 f c I Q  .X.&.$. .Q | j.Z.2.a , a o. . .X.] / W I K 9 o . o . o # D S S S S S S S ",
". + D S G S + . . o 9 _ X.$.#.] ' ] #.X.f , , 5 c P Y (  .X.X.Q Q X.p.x.b.z , a o.] ]  . ./ Y I v c z l l s 5 3 Z S S S S S S S ",
".   + @ S S + . . . , f _ _ ] _  ._ ] #.X.p , 4 f c P T _  . .Q  .o.9.g.y.N 1 c o.] ( _ ( W Y ! 7.V.V.t.,.-.s o + + + + + + + + ",
". . . + D D + . . . o 4 c m ! _ { { { O.%.n , < 9 f c I ^ ( T W  .@.3.t.s.:.v | X._ _ ( ^ Y ! @.3.j.j.4.#.[ p o . . . . . . . . ",
". . .   + +   . . . . o 5 f b ( ,.t.a.G.J.m.J z z z c P Y ! m Y ..1.3.4.4.,.L ] ] _  ./ W ! @.#. .=.3.@. .f , . . . . . . . . . ",
". . . . . . . . . . . . o 5 f V ..#.p.k.l.B.C.F.n.V z c I I b I  .#.$.#. .=.@.] ( ( / W ! @.#.] _ ] X.X._ 9 o . . . . . . . . . ",
". . . . . . . . . . . . . o 4 c  .X.@.4.i.g.l.l.a.o.P c P Y P b I Q _ ] ] $.$.] ( ^ W ! @.#.] _ ( ( _ ` f , . . . . . . . . . . ",
". . . . . . . . .   + +     * y { X.X.3.4.9.i.9.#.1.o.U b Q I c c I /  .] #.$.] ^ W ! @.#.] _  .( ^ W P 5 o . . . . . . . . . . ",
". . . . . . . . . + D D + X * w { X.X.3.3.4.7.@.X.1.3.o.U I I P c P T ( _ ] #.] W ! o.#.] ( ( / T Y K 5 , . . . . . . . . . . . ",
". . . . . . . . . + D D @ O - w _ X.X.3.3.4.o.]  .X.1.3.o.V P I c c I ^ ( ] $.@.! X.] ] ( ( ^ Y P K 5 , . . . . . . . . . . . . ",
". . . . . . . . .   + @ Z = = > h ] X.$.#.{ ]  .] ] X.1.#.U c m m z P W ( ] #.#.! _ ( ( ^ W Y K a 9 < o . . . . . . . . . . . . ",
". . . . . . . . . . o # A u 7 7 q V Y ( _ ( ( _ ( ( ] X.$.o.V 6 6 q z Y ] _ ] #._ / ^ W Q Q R v l s a 9 , . . . . . . . . . . . ",
". . . . . . . . . . 3 5 z | #.+.M h m I I T ^ ( ( _ ] X.X.$...g > 0 w P W ^ _ @.( W W Q X.=.<.,.#.@.o.^ 5 . . . . . . . . . . . ",
". . . . . . . . . . o 5 ^ X.1.3.o.o.X.U P T Y T /  . . .] ] #...g 0 w z P Y W ! W W ^ ( ] $.4.3.@.X.` d , . . . . . . . . . . . ",
". . . . . . . . . . . , d _ X.@.] ] X.@.@.X.P P I W ( ( ( ( ] X.P q w i z P m h V ! ( ] ( ] @.#.X._ d , . . . . . . . . . . . . ",
". . . . . . . . . . . . , d ( Q / ] _ _ ] ) Q c z P I T ^ ^ W Q Y h g k x x w 0 y P Y T I I Y Q ( d , . . . . . . . . . . . . . ",
". . . . . . . . . . . . . # t c P Y I T ^ ^ U w q z z P I I Y ^ | o.#.#.o.} k y w j V P z z z z 9 , . . . . . . . . . . . . . . ",
". . . . . . . . . . . . . + A r 9 f c P I I m q w y q w z z V V x  .1.$.] ] X.} j e i i q 0 0 0 *   . . . . . . . . . . . . . . ",
". . . . . . . . . . . . . + S D # 4 5 p f d q 0 w e e e y q q q w ~ { _ ( ( ] ] ~ g e e e w 0 - O   . . . . . . . . . . . . . . ",
". . . . . . . . . . . . . + D D @ # o , 4 - ; 0 0 w e e e e e w 0 y c P I Y / ] ( E q w w 0 - * X   . . . . . . . . . . . . . . ",
". . . . . . . . . . . . .   + @ D D +   O = = ; 0 0 w e e e e e w 0 0 q z V I U V w * * - - : Z + . . . . . . . . . . . . . . . ",
"+ + + +   . . . . . . . . . . + D D +     O = = ; 0 0 0 w e e e e w 0 > 0 0 0 0 0 * @ @ O * C S @ +   . . . . . . . .   + + + + ",
"S S S D + . . . . . . . . . .   + +   .   X O = = - - * > w e e w 0 > = & & & & : C S S S S G G S D + . . . . . . . . + D S S S ",
"S S S D + . . . . . . . . . . . . . . . .     O % * O X * ; > 0 0 ; = : C C F F S S S S S S S S S D + . . . . . . . . + D S G G ",
"+ + + +   . . . . . . . . . . . . . . . . .               O * = = * O X + @ S S @ + + + + + + + + +   . . . . . . . .   + @ S G ",
". . . . . . . . . . . . . . . . . . . . . . . . . . . .     X O O X     . + D D + . . . . . . . . . . . . . . . . . . . . + D S ",
". . . . . . . . . . . . . . . . . . . . . . . . . . . . . .         . . .   + +   . . . . . . . . . . . . . . . . . . . .   + + ",
". . . . . . . . . . . . . . . . . . . . . . . . . . . . . . . . . . . . .   + +   . . . . . . . . . . . . . . . . . . . . . . . ",
". . . . . . . . . . . . . . . . . . . . . . . . . . . . . . . . . . . . . + D D + . . . . . . . . . . . . . . . . . . . . . . . ",
". . . . . . .   + +   . . . . . . . . . . . . . . . . . . . . . . . . . . + S S + . . . . . . . . . . . . . . . . . . . . . . . ",
". . . . . . . + D D + . . . . . . . . . . . . . . . . . . . . . . . . . . + S S + . . . . . . . . . . . . . . . . . . . . . . . ",
". . . . . . . + S S + . . . . . . . . . . . . . . . . . . . . . . . . . . + S S + . . . . . . . . . . . . . . . . . . . . . . . "
};
