/* XPM */
static const char *player[] = {
/* columns rows colors chars-per-pixel */
"32 32 168 2 ",
"   c black",
".  c gray1",
"X  c #050302",
"o  c #090404",
"O  c #0A0504",
"+  c #0C0404",
"@  c #090800",
"#  c #090902",
"$  c #0F0906",
"%  c gray4",
"&  c #0D0C0C",
"*  c #120606",
"=  c #160D08",
"-  c #180C0B",
";  c #1A0F0A",
":  c #1C0E0B",
">  c #1C0E0D",
",  c #111010",
"<  c #131212",
"1  c #1B1A1A",
"2  c #200B0B",
"3  c #210C0C",
"4  c #280D0D",
"5  c #24110F",
"6  c #24140E",
"7  c #29180F",
"8  c #231210",
"9  c #251211",
"0  c #2A1513",
"q  c #2A1515",
"w  c #2B1614",
"e  c #2D1614",
"r  c #321010",
"t  c #341111",
"y  c #3C1515",
"u  c #311816",
"i  c #331917",
"p  c #3A1B17",
"a  c #381C17",
"s  c #242300",
"d  c #272507",
"f  c #292700",
"g  c #2D2307",
"h  c #27260A",
"j  c #2C2B0B",
"k  c #2A280E",
"l  c #323002",
"z  c #36340D",
"x  c #292812",
"c  c #292814",
"v  c #383719",
"b  c #38361B",
"n  c #222020",
"m  c #222222",
"M  c #2E2827",
"N  c #2C2C2C",
"B  c #2E2C2C",
"V  c #312928",
"C  c #352D29",
"Z  c #312E2E",
"A  c #332F2E",
"S  c #342E2E",
"D  c #313131",
"F  c #363030",
"G  c #383030",
"H  c #3E3733",
"J  c #393434",
"K  c #383636",
"L  c #3D3836",
"P  c #3C3A3A",
"I  c #3C3C3C",
"U  c #411D19",
"Y  c #4E1B1B",
"T  c #40221B",
"R  c #40201D",
"E  c #47251C",
"W  c #4C2C1C",
"Q  c #502E1F",
"!  c #512E1F",
"~  c #4A3113",
"^  c #533A13",
"/  c #4A2420",
"(  c #4E2622",
")  c #4A2626",
"_  c #502920",
"`  c #522B21",
"'  c #572F22",
"]  c #512A29",
"[  c #582E2E",
"{  c #593321",
"}  c #583A2B",
"|  c #473535",
" . c #483C3C",
".. c #503838",
"X. c #553A3A",
"o. c #632A25",
"O. c #642D26",
"+. c #792A2A",
"@. c #613625",
"#. c #623625",
"$. c #673A27",
"%. c #673D24",
"&. c #683B28",
"*. c #6B3D28",
"=. c #6B3E28",
"-. c #623E3E",
";. c #48450B",
":. c #4F4C12",
">. c #545115",
",. c #6A4B17",
"<. c #654519",
"1. c #484731",
"2. c #4C4B37",
"3. c #6E402A",
"4. c #70412A",
"5. c #60423A",
"6. c #78423D",
"7. c #464343",
"8. c #494646",
"9. c #4B4848",
"0. c #595555",
"q. c #5D5D5D",
"w. c #674E42",
"e. c #635F5F",
"r. c #802C2B",
"t. c #A73A38",
"y. c #B33C3C",
"u. c #BA3E3E",
"i. c #89443E",
"p. c #8D463F",
"a. c #8C4740",
"s. c #974C46",
"d. c #9D4F48",
"f. c #B84442",
"g. c #A45148",
"h. c #A5524A",
"j. c #BE5750",
"k. c #BD5F57",
"l. c #D2685E",
"z. c #D4695F",
"x. c #D86B61",
"c. c #868000",
"v. c #938707",
"b. c #999212",
"n. c #A48F0E",
"m. c #A29B00",
"M. c #ABA300",
"N. c #B0A700",
"B. c #B4AB04",
"V. c #A8A225",
"C. c #BAB324",
"Z. c #B9B22E",
"A. c #BEB72F",
"S. c #C0B009",
"D. c #C3BB24",
"F. c #C0B929",
"G. c #CBC200",
"H. c #D4CA00",
"J. c #D6CC07",
"K. c #D0C82D",
"L. c #C7C031",
"P. c #E1D92C",
"I. c #E2D92E",
"U. c #E5DD39",
"Y. c #FBF236",
"T. c #F3EC5E",
"R. c #EFE872",
"E. c None",
/* pixels */
"E.E.E.E.E.E.E.E.E.E.E.E.E.E.E.E.E.E.E.E.E.E.E.E.E.E.E.E.E.E.E.E.",
"E.E.E.E.E.E.E.E.E.E.E.E.E.E.E.E.E.E.E.E.E.E.E.E.E.E.E.E.E.E.E.E.",
"E.E.E.E.E.E.E.E.E.E.E.E.E.E.E.E.E.E.E.E.E.E.E.E.E.E.E.E.E.E.E.E.",
"E.E.E.E.E.E.E.E.E.E.E.E.E.E.E.E.E.E.E.E.E.E.E.E.E.E.E.E.E.E.E.E.",
"E.E.E.E.E.E.E.E.E.E.E.E.E.E.E.E.E.2.x c E.E.E.E.E.E.E.E.E.E.E.E.",
"E.E.E.E.E.E.E.E.E.E.E.E.E.E.1.s # F.T.R.b E.E.E.E.E.E.E.E.E.E.E.",
"E.E.E.E.E.E.E.E.E.E.E.E.1.s M.J.l F.Y.T.b E.E.E.E.E.E.E.E.E.E.E.",
"E.E.E.E.E.E.E.E.E.E.E.1.M.H.J.I.>.V.K.K.:.h E.E.E.E.E.E.E.E.E.E.",
"E.E.E.E.E.E.E.E.E.E.I m.H.J.I.U.U.>.h h Z.U.z E.E.E.E.E.E.E.E.E.",
"E.E.E.E.E.E.E.E.E.E.1.M.H.I.L.A.A.A.A.A.A.A.j E.E.E.E.E.E.E.E.E.",
"E.E.E.E.E.E.E.E.E.I c.G.H.D.;.s s d h h h h h # E.E.E.E.E.E.E.E.",
"E.E.E.E.E.E.E.E.E.I < b.B.f c.N.N.C.A.A.A.A.A.j E.E.E.E.E.E.E.E.",
"E.E.E.E.E.E.E.E.q.9.0.e.n & & . > 3 2 2 5 9 o n E.E.E.E.E.E.E.E.",
"E.E.E.E.E.E.E.E.E.I - F P 7.8.1 a.f.u.u.j.l.u E.E.E.E.E.E.E.E.E.",
"E.E.E.E.E.E.E.E.E.q.6.R o B 7.8.1 +.y.u.o.h.e E.E.E.E.E.E.E.E.E.",
"E.E.E.E.E.E.E.E.E.E.I i.0 $ A 7.8.< r.t.O._ : E.E.E.E.E.E.E.E.E.",
"E.E.E.E.E.E.E.E.E.E.D . $ W = B 7.1 T _ &.4._ E.E.E.E.E.E.E.E.E.",
"E.E.E.E.E.E.E.E.E. .9 9 Q = $ X J 8.} =.4.4.' E.E.E.E.E.E.E.E.E.",
"E.E.E.E.E.E.E.E.I h.x.z.u o { 7 A 7.< Q 3.4.4._ E.E.E.E.E.E.E.E.",
"E.E.E.E.E.E.E.E.D h.z.k.w ~ %.3.- J < a $.4.=.E E.E.E.E.E.E.E.E.",
"E.E.E.E.E.E.E.D $ p.d.s.8 m.,.$.6 A k ^ %.3._ V E.E.E.E.E.E.E.E.",
"E.E.E.E.E.E.D $ W C B B % m.,.$._ g M.H.,.$._ E.E.E.E.E.E.E.E.E.",
"E.E.E.E.E.I $ W C E.E.E.I v.<.$._ n.S.S.<.$._ E.E.E.E.E.E.E.E.E.",
"E.E.E.E.E.L W C E.E.E.E.J ) ( #.E ] [ [ / #.5.E.E.E.E.E.E.E.E.E.",
"E.E.E.E.q.w.H E.E.E.E.I y Y Y U M w r t t p E.E.E.E.E.E.E.E.E.E.",
"E.E.E.E.E.E.E.E.E.E.E.I y Y Y * E.I 4 t t + E.E.E.E.E.E.E.E.E.E.",
"E.E.E.E.E.E.E.E.E.E.E.q.X.-.-.G E.q.| ....S E.E.E.E.E.E.E.E.E.E.",
"E.E.E.E.E.E.E.E.E.E.E.E.E.E.E.E.E.E.E.E.E.E.E.E.E.E.E.E.E.E.E.E.",
"E.E.E.E.E.E.E.E.E.E.E.E.E.E.E.E.E.E.E.E.E.E.E.E.E.E.E.E.E.E.E.E.",
"E.E.E.E.E.E.E.E.E.E.E.E.E.E.E.E.E.E.E.E.E.E.E.E.E.E.E.E.E.E.E.E.",
"E.E.E.E.E.E.E.E.E.E.E.E.E.E.E.E.E.E.E.E.E.E.E.E.E.E.E.E.E.E.E.E.",
"E.E.E.E.E.E.E.E.E.E.E.E.E.E.E.E.E.E.E.E.E.E.E.E.E.E.E.E.E.E.E.E."
};
