/* XPM */
static const char *P[] = {
/* columns rows colors chars-per-pixel */
"64 64 207 2 ",
"   c #030103",
".  c #090007",
"X  c #050409",
"o  c #0B020B",
"O  c #05090A",
"+  c #0C0A0E",
"@  c #11000E",
"#  c #110D0D",
"$  c #03130E",
"%  c #060710",
"&  c #090712",
"*  c #070812",
"=  c #0A0B14",
"-  c #0B0C1B",
";  c #150112",
":  c #1B0116",
">  c #150917",
",  c #1D021A",
"<  c #140B1A",
"1  c #1A0B1C",
"2  c #0D1115",
"3  c #0A1A1A",
"4  c #13141B",
"5  c #161518",
"6  c #22001C",
"7  c #28001F",
"8  c #200B1F",
"9  c #221C18",
"0  c #06231B",
"q  c #1F211A",
"w  c #0E0E21",
"e  c #130C23",
"r  c #1D0C23",
"t  c #0E1227",
"y  c #101127",
"u  c #11142C",
"i  c #191928",
"p  c #141632",
"a  c #141936",
"s  c #1A1B36",
"d  c #151A3A",
"f  c #1C1B3D",
"g  c #240522",
"h  c #2C0023",
"j  c #260A29",
"k  c #310026",
"l  c #36002B",
"z  c #38002C",
"x  c #231729",
"c  c #2C0B34",
"v  c #350431",
"b  c #330936",
"n  c #320C39",
"m  c #2C1738",
"M  c #0B2C25",
"N  c #172628",
"B  c #10352F",
"V  c #22272B",
"C  c #332C21",
"Z  c #292837",
"A  c #242C3A",
"S  c #382E3E",
"D  c #27313C",
"F  c #2A343C",
"G  c #41382A",
"H  c #0B4534",
"J  c #0B4937",
"K  c #0B4938",
"L  c #4F4635",
"P  c #191E43",
"I  c #1F1F49",
"U  c #221B45",
"Y  c #241F4C",
"T  c #311C46",
"R  c #1C2243",
"E  c #1C234C",
"W  c #1F2654",
"Q  c #242C47",
"!  c #21224D",
"~  c #382A48",
"^  c #2B3343",
"/  c #29334F",
"(  c #2E3849",
")  c #353946",
"_  c #313C4C",
"`  c #252354",
"'  c #222857",
"]  c #222A5C",
"[  c #2A345D",
"{  c #333F53",
"}  c #333E5F",
"|  c #262F60",
" . c #273161",
".. c #293362",
"X. c #2E3967",
"o. c #323E61",
"O. c #323E6A",
"+. c #432C51",
"@. c #4D3653",
"#. c #57327E",
"$. c #0E5944",
"%. c #35414E",
"&. c #3A454E",
"*. c #275C46",
"=. c #3C4956",
"-. c #0F684F",
";. c #10644D",
":. c #117055",
">. c #12795C",
",. c #374367",
"<. c #3D4B61",
"1. c #35426D",
"2. c #364A73",
"3. c #3C4A72",
"4. c #227E60",
"5. c #465752",
"6. c #44525D",
"7. c #675D4A",
"8. c #7D6B52",
"9. c #404D65",
"0. c #465566",
"q. c #4A5B65",
"w. c #435374",
"e. c #4B5C76",
"r. c #44547A",
"t. c #47587C",
"y. c #4B5C7D",
"u. c #4E617D",
"i. c #556976",
"p. c #52647A",
"a. c #987F6D",
"s. c #148464",
"d. c #158968",
"f. c #1A8968",
"g. c #2B8D6A",
"h. c #379470",
"j. c #409873",
"k. c #6CA079",
"l. c #9E8A6C",
"z. c #9C9A74",
"x. c #A5906C",
"c. c #A28871",
"v. c #A7A87F",
"b. c #613A85",
"n. c #663B93",
"m. c #336287",
"M. c #4C5E81",
"N. c #6C4688",
"B. c #754C93",
"V. c #4E6082",
"C. c #536585",
"Z. c #576987",
"A. c #566A89",
"S. c #596E8C",
"D. c #5D7388",
"F. c #5E7492",
"G. c #637988",
"H. c #607793",
"J. c #637A95",
"K. c #7C858B",
"L. c #6C8494",
"P. c #6B849C",
"I. c #758C9D",
"U. c #508DA6",
"Y. c #6E87A2",
"T. c #728CA5",
"R. c #7792A6",
"E. c #7995A6",
"W. c #7A96AD",
"Q. c #7D9AAE",
"!. c #7E9BB1",
"~. c #66ABBE",
"^. c #65AFC1",
"/. c #7ABFCE",
"(. c #52C6D3",
"). c #53D1DC",
"_. c #7BC0CF",
"`. c #78C3D1",
"'. c #65DFE7",
"]. c #5EE4EB",
"[. c #5BECF1",
"{. c #61E5EB",
"}. c #98988C",
"|. c #B1988E",
" X c #B7919B",
".X c #97B68A",
"XX c #B4B185",
"oX c #809DAF",
"OX c #809EB3",
"+X c #83A1B5",
"@X c #86A5B9",
"#X c #88A7BB",
"$X c #8AAABE",
"%X c #98AFBA",
"&X c #ACB9B7",
"*X c #A4B5B9",
"=X c #CBAB8D",
"-X c #CDA99B",
";X c #C4BAA5",
":X c #C3C695",
">X c #E4C494",
",X c #DBCCAC",
"<X c #EACDA0",
"1X c #E5D0AA",
"2X c #FAD6A3",
"3X c #FEDAA5",
"4X c #85B3C6",
/* pixels */
"z z z z z z z z z z z z z z z z z z z z z z z z z z z z z z z l k h k l z v ` ` v z z z z z z z z z z z z z z z z z z z z z z z ",
"z z z z z z z z v v z z z z z z z z z z z z z z z z z z z z z 6 @ @ ; h z v ` ` v z z z z z z z z z z z z z z z z z z z z z z z ",
"z z z z z z z v ! ` v z z z z z z z z z z z k h h h k z z z z 6   $ 3 1 h k v v z z z z z z z z z z z z z z z z z z z z z z z z ",
"z z z z z z z v ` ` v z z z z z z z z z z z 6 o . o 6 z z z z 6 X B ;.M @ h z z z z z z z z z z z z z z z z z z z z z z z z z z ",
"z z z z z z z z v v z z z z z z z z z z z z 6   3 M 4 6 6 6 6 @ X H >.$.M 1 h l z z z z z z z z z z z z z z z z z z z z z z z z ",
"z z z z z z z z v v z z z z z z z z z z z z 6 X B ;.M X X X X X O K s.s.;.0 ; k z z z z z z z z z z z z z z z z z z z z z z z z ",
"z z z z z z z v ` ` v z z z z z z z z z z z h , N H H H H H H H J -.s.d.:.0 @ h z z z z z z z z z z z z z z z z z z z z z z z z ",
"z z z z v v v b ` ` v z z z z z z z z z z z l h < 3 $.s.s.s.s.s.s.s.d.d.:.0 @ h z z z z z z z z z z z z z z v v v v v v v v z z ",
"z z z v ` ` ` ` ] ` v z z z z z z z z z z z h > M $.>.d.d.d.d.d.d.d.d.d.:.0 @ h z z z z z z z z z z z z z v ` ` ` ` ` ` ` ` v z ",
"z z z v ` ` ` ` ` ` b v z z z z z z z z z z 6 O J s.d.f.h.j.j.j.j.j.h.4.$.3 ; k z z z z z z z z z z z z v b ` ` ` ` ` ` ` ` v z ",
"z z z z v v v v v b ` ` v z z z z z z z z z 6 O J s.d.h..X:X:X:X:X:XXX5.3 8 h l z z z z z z z z z z z v ` ` b v v v v v v v z z ",
"z z z z z z z z z v ` ` b v z z z z z z z z 6 O J f.j.k.z.|.-X-X-X=Xl.G . h z z z z z z z z z z z z v b ` ` v z z z z z z z z z ",
"z z z z z z z z z z v b ` ` v z z z z z z z 6 O J g..XXXL S N.B.B.@.9 + . h z z z z z z z z z z z v ` ` b v z z z z z z z z z z ",
"z z z z z z z z z z z v ` ` v z z z z z z z h : M *.v.=XG i #.n.b.T     . h z z z z z z z z z z v b ` ` v z z z z z z z z z z z ",
"z z z z z z z z z z z z v v z z z z z z z z l h > q x.=XL m b.B.N.~ #   . 6 l l z z z z z z z v ` ` ] ` v z z z z z z z z z z z ",
"z z z z z z z z z z z z z z z z z z z z z z h : o 5 x.>Xx.a. X X Xc.8.C   @ 6 k z z z z z z z v ` ` ] ` v z z z z z z z z z z z ",
"z z z z z z z z z z z z z z z z z z z z l k g 4 4 V l.<X2X2X2X3X3X2X>X7.2 = > h l l z z z z z z v b ` ` v z z z z z z z z z z z ",
"z z z z z z z z z z z z z z z z z z v v h : S i.i.G.K.|.<X3X3X3X3X3X<X}.i.9.^ < 6 l z z z z z z z v ` ` v z z z z z z z z z z z ",
"z z z z z z z z z z z z z z z z z v Y U j V q.+X$X#XT.I.;X1X1X1X1X1X,X&X+XY.e.V r h k l z z z z z v ` ` v z z z z z z z z z z z ",
"z z z z z z z z z z z z z z z z z v U w Z D.E.#X$X$X+X+X%X*X*X*X*X*X*X%X$X+XP.e.^ ; 6 l z z z z z v ` ` b v z z z z z z z z z z ",
"z z z z z z z z z z z z z z z z z z h o F E.$X$XOXQ.@X$X$X$X$X4X/.`./.4X$X$XQ.F.{ + : l z z z z z v ` ] ` ` v z z z z z z z z z ",
"z z z z z z z z z z z z z z z z z l h o F R.$X#XT.J.W.$X$X$X$X`.'.{.'._.$X$XW.F.{ + : l z z z z z v ` ] ` ` v z z z z z z z z z ",
"z z z z z z z z z z z z z z z z l 6 r Z =.P.T.Y.A.r.F.W.@X$X$X`.].[.{.`.#XW.J.t.Q + : l z z z z z v ` ` b v z z z z z z z z z z ",
"z z z z z z z z z z z z z z l l h : i 9.C.C.C.u.3...r.F.W.#X#X`.].[.]./.!.J.r.[ a + , l z z z z z v ` ` v z z z z z z z z z z z ",
"z z z z z z z z z z z z z z l 6 1 Z =.y.w.^ A A Q ] O.r.F.P.P.^.].[.].~.J.t.[ p e 6 h l z z z z z z v v z z z z z z z z z z z z ",
"z z z z v v z z z z z z z l h 8 N 0.S.u.{ -     p ] | O.y.C.C.U.(.).(.U.y.O.R O ; k z z z z z z z z z z z z z z z z z z z z z z ",
"z z z v ` ` v z z z z z l 6 : &.G.I.J._ i g ; X p ] 3.y.C.y.1.2.m.m.m.2.1.w.{ = ; k z z z z z z z z z z z z z z z z z z z z z z ",
"z z z v ` ` b v z z z z l , + q.#X$XL.V @ k 6 X p [ r.A.A.y.1.X.X. .] ..1.M.<.2 ; k z z z z z z z z z z z z z z z z z z z z z z ",
"z z z v ` ] ` ` v z z z l , + q.#X$XL.V @ k 6 X p [ r.A.A.C.M.M.y.1. .3.V.C.<.2 ; k z z z z z z z z z z z z z z z z z z z z z z ",
"z z z v ` ] ` ` v z z z l , + 6.T.G.0.x 6 k h ; e f o.r.C.A.A.A.C.3. .r.C.t.} p < 6 h l z z z z z z z z z z z z z z z z z z z z ",
"z z z v ` ` b v z z z l l , = _ y.D < h l l l k : * R O.y.Z.Z.Z.C.3. .w.y.O.] W p o , l z z z z z z z z z z z z z z z z z z z z ",
"z z v b ` ` v z z z z h 6 x ^ ^ D x 6 k z z z l : X d  .1.3.3.3.3.X.] O.,.R d W a X : l z z z z z z z z z z z z v v v v v v v v ",
"z v ` ` ] ` v z z z z 6 . A w.D X 6 l z z z z l : + a W ] ] ] ] ] ] ] ' R - - E a X : l z z z z z z z z z z z v ` ` ` ` ` ` ` ` ",
"z v ` ` ] ` v z z z z 6 . A e.D . 6 z z z z z l h 6 e u E ] ] ] ] ] ' d - X - E a X : l z z z z z l v v z z z v ` ` ` ` ` ` ` ` ",
"z z v b ` ` v z z z z 6 . D p.^   , h h k l z z z k : & d ! ` ` ` ! P e .   - E d - , h l z z z z v ` ` v z z z v v v v v v v v ",
"z z z v ` ` v z z z z 6 . %.P.&.  . o o , l z z z l h 6 > e c n b r - , 6 . - E W P e ; 7 z z z v b ` ` v z z z z z z z z z z z ",
"z z z z v v z z z z z 6 . =.E.i.F D V + - U v z z l h 6 . @ k z l :   : 6 . - E ] ] d - g z z v ` ` b v z z z z z z z z z z z z ",
"z z z z z z z z z z z 6 . =.Q.oXR.R.D.N - ! b v v l :     @ k z l :         - E ] ] W ! n v v b ` ` v z z z z z z z z z z z z z ",
"z z z z z z z z z z z 6 . =.oX$X+XG.6.x p W ` ` P s ^ &.&.{ +.+.+.~ A A A A Q ' ] ] ] ' ` ` ` ` b v z z z z z z z z z z z z z z ",
"z z z z z z z z z z v g . &.E.#XW.&.> j Y ` ` ! p i i.Q.Q.T.Z.C.C.u.u.y.y.y.3. .] ' ' ` ` ` ] ` v z z z z z z z z z z z z z z z ",
"z z z z z z z z z v ` U 6 Z 6.L.E.) % f b v h 1 ^ e.I.$X$XW.F.A.A.A.C.r.3.3.O.] E u u y j b ` ` v z z z z z z z z z z z z z z z ",
"z z z z z z z z z v ` ` b g < 0.L.F % f v z 6 + 0.+X$X$X#XW.F.A.A.C.y.1.] ] ] ] d X   o 6 v ` ` v z z z z z z z z z z z z z z z ",
"z z z z z z z z z z v b ` I f A F 4 . h z z 6 + q.#X$X@XT.J.S.A.Z.r.O. .] ] ] ] a X @ 6 k v ` ` v z z z z z z z z z z z z z z z ",
"z z z z z z z z z z z v ` ` ' p % % ; h z z 6 + 6.Q.oXW.H.C.M.e.w.[ E W ] ] ] ] a X : l z v ` ` v z z z z z z z z z z z z z z z ",
"z z z z z z z z z z z z v b ` E j h h l z z 6 + %.F.J.H.S.y.O.Q i 2 - P ] ] ] ] a X : l z z v v z z z z z z z z z z z z z z z z ",
"z z z z z z z z z z z z z v ` ` v z z z z z 6 X ( C.A.A.A.w.E y ; . X d ] ] ] ] a X : l z z z z z z z z z z z z z z z z z z z z ",
"z z z z z z z z z z z z z v ` ` v z z z z z 6 X ( C.A.A.A.<.4 ; h ; X d ] ] ] ] a X : l z z z z z z z z z z z z z z z z z z z z ",
"z z z z z z z z z z z z z v ` ` v z z z z z 6 X ( C.A.A.A.<.= ; k : X d ] ] ] ] a X : l z z z z z z z z z z z z z z z z z z z z ",
"z z z z z z z z z z z z z v ` ` v z z z z z 6 X _ A.S.S.S.<.2 ; h : + a ' ] ] ] d % : k l z z z z z z z z z z z z z z z z z z z ",
"z z z z z z z z z z z z z v ` ` v z z z z z 6 + =.T.T.T.T.p.4 ; k h , e p E ] ] E a e : h z z z z z z z z z z z z z z z z z z z ",
"z z z z z z z z z z z z z v ` ` v z z z z z 6 + q.#X$X#XQ.i.5 : k z k ; % P ] ] ] ' u X 6 z z z z z z z z z z z z z z z z z z z ",
"z z z z z z z z z z z z z v ` ` b v z z z z 6 + q.#X$XE.6.Z g h l z k ; % P ] ] ] ] u X 6 z v v z z z z z z z z z z z z z z z z ",
"z z z z z z z z z z z z z z v b ` ` v z z z 6 + 6.W.!.G.N @ k z z z k ; % P ] ] ] ] u X 6 v ` ` v z z z z z z z z z z z z z z z ",
"v v v v z z z z z z z z z z z v ` ` v z z z 6 + _ F.H.e.i @ k z z z l ; % P ] ] ] ] u X 6 b ` ` b v z z z z z z z z z z v v v v ",
"` ` ` ` v z z z z z z z z z z z v v z z k 6 1 y / w.r.,.4 @ k z z v U w % P ] ] ] ] u X p ` ] ] ` ` v z z z z z z z z v ` ` ` ` ",
"` ` ` ` v z z z z z z z z z z z z z z z 7 o e E ]  . .! - @ k z z v U w * P ] ] ] ] u X p ` ` ` ` ` v z z z z z z z z v ` ` ] ] ",
"v v v v z z z z z z z z z z z z z z z z 6   t W ] ] ] E * @ k z z z l g 1 y d W ] ] u X 6 v v v v v z z z z z z z z z z v b ` ] ",
"z z z z z z z z z z z z z z z z z z z z 6   t W ] ] ' P - ; k z z z l l h o - E ] ] u X 6 z z z z z z z z z z z z z z z z v ` ` ",
"z z z z z z z z z z z z z z z z z z z z 6 . t ' ] W d e , 7 l z z z z z h o - E ] ] u X 6 z z z z z z z z z z z z z z z z z v v ",
"z z z z z z z z z z z z z z z z z z z z 6 . e ! ` Y - . h z z z z z z z h o * P E E t   : k l z z z z z z z z z z z z z z z z z ",
"z z z z z z z z z z z z z z z z z z z z 6   > c n c ; . h z z z z z z z h o   * - - X   . ; h z z z z z z z z z z z z z z z z z ",
"z z z z z z z z v v z z z z z z z z z z 6   : l z k ; . h z z z z z z z h o               . h z z z z z z z z z z z z z z z z z ",
"z z z z z z z v ` ` v z z z z z z z z z 6   ; k z k ; . h z z z z z z z h o               . 6 l z z z z z z z z z z z z z z z z ",
"z z z z z z z v ` ` v z z z z z z z z z h : 6 l z l 6 , k z z z z z z z k 6 y y : : : : : : h l z z z z z z z z z z z z z z z z "
};
