/* XPM */
static const char *trab[] = {
/* columns rows colors chars-per-pixel */
"32 32 4 1 ",
"  c #19140B",
". c #1B150C",
"X c #1C170D",
"o c #1E180E",
/* pixels */
"ooooooooo.  Xoooooooooo.  Xooooo",
"ooooooooo.  Xooooooooo.  Xoooooo",
"ooooooooo.  Xoooooooooo. Xoooooo",
"oooooooooo. Xoooooooooo.  Xooooo",
"oooooooooo. Xooooooooo.    Xoooo",
"oooooooooo. Xoooooooo. Xo.  Xooo",
"ooooooooo.  Xooooooo. Xooo. Xooo",
"oooooooo.  Xooooooo.  Xoooo. Xoo",
"oooooooo. Xooooooo.    Xooo.  Xo",
"oooooooo. Xooooo.       Xo.  Xoo",
"oooooooo.  Xooo.   Xoooo.    Xoo",
"ooooooo.          Xoooooo.   Xoo",
"oooooo.Xo.       Xoooooooo.   Xo",
"ooooo.Xooo. Xoooooooooooooo.   X",
"oooo.Xoooo.Xoooooooooooooooo.   ",
"    Xoooo.Xooooooooooooooooo.   ",
".   Xooo.Xoooooooooooooooooo.   ",
"oo.  Xo.Xoooooooooooooooooo.    ",
"ooo.    Xooooooooooooooooo.    X",
"ooooo.  Xooooooooooooooooo.   Xo",
"oooooo. Xooooooooooooooooo.  Xoo",
"oooooo.Xooooooooooooooooo.   Xoo",
"ooooo. Xoooooooooooooooo.   Xooo",
"oooo.  Xooooooooooooooo.    Xooo",
"ooo.   Xoooooooooooooo.     Xooo",
"oo. Xo.Xooooooooooo.    Xo.  Xoo",
"   Xooo.Xooooooooo.   Xoooo.    ",
".  Xooo. Xooooooo.   Xooooo.    ",
"oo. Xo.   Xoo.       Xoooo.  Xoo",
"ooo.                 Xooo.  Xooo",
"ooooo.   Xo.    Xooo. Xo.  Xoooo",
"oooooo. Xooo.  Xooooo.    Xooooo"
};
