/* XPM */
static const char *wall[] = {
/* columns rows colors chars-per-pixel */
"32 32 3 1 ",
"  c #595652",
". c #696A6A",
"X c #847E87",
/* pixels */
"XX. .XXXXXXXXX. .XXXXX. ...XX.. ",
"XX.  .XXXXXXXX. ...X..     ..   ",
"X.    .XXXXX..     .   ...    ..",
".  ..  .....   ...   ..XXX... .X",
"  .XX.       ..XXX.  .XXXXXX. .X",
" .XXXX.... ..XXXXXX. .XXXXX.  .X",
".XXXXXXX.  .XXXXXXX. .XX.... .XX",
"..XXXXX.    .XXXXXX.  ..     ...",
"  .....  ..  .......   . ..     ",
".       ..           .   ..   ..",
"X..  ...X. .......  .X...XX. .XX",
"XX. .XXX.. .XXXXXX. .XXXXX.  .XX",
"XX. .XX.   .XXXXXX. .XXX..  .XXX",
"X.  .X.  ..XXXXXXX. .X..   .XXXX",
"X. .X.  .XXXXXXXXX. ..   .  .XXX",
".. .X.   .........     ..X.  ...",
"    .. .             ..XXXX.    ",
"...  . ....... ..... .XXXXXX. ..",
"XXX.   .XXXXX. .XXX.  .XXXX.  .X",
"XXXX. .XXXXX.  .XXXX.  ....  .XX",
"XXXX. .XXXX.  .XXXXX.       .XXX",
"...X. .XXXX. .XXXXXX. .....  ...",
"   .. ...X.  ..XXXX.  .XXXX.    ",
"..       .     ....   .XXXX.   .",
"X.  ....   ...      .  .X... ..X",
"X. .XXXX...XXX. ....X.  .    .XX",
"X. .XXXXXXXXXX. .XXXXX.   . .XXX",
"X. .XXXXXXXXXX. ...XX.  ... .XXX",
"X.  .XXXXXX...     ..  .XX.  .XX",
"XX.  ......    ...    .XXXX. ..X",
"XXX.        ..  .X...  .XXX.   .",
"XX.  .......XX. .XXXX.  .XXX..  "
};
