/* XPM */
static const char *_[] = {
/* columns rows colors chars-per-pixel */
"64 64 5 1 ",
"  c black",
". c #38002C",
"X c #222A5C",
"o c #566A89",
"O c #8BABBF",
/* pixels */
"                                                                ",
"                                                                ",
"  ooOOOOOOOOOOOOooooooOOOOOOOOOOOOooOOOOOOooooooOOOOOOOOOOOOOO  ",
"  ooOOOOOOOOOOOOooooooOOOOOOOOOOOOooOOOOOOooooooOOOOOOOOOOOOOO  ",
"  OOOOOOOOOOOOOOOOOOOOOOOOOOOOOOOOOOOOOOOOOOOOOOOOOOOOOOOOOOOO  ",
"  OOOOOOOOOOOOOOOOOOOOOOOOOOOOOOOOOOOOOOOOOOOOOOOOOOOOOOOOOOOO  ",
"  OOOOOOOOOOOOOOOOOOOOOOooOOOOOOooOOOOOOOOOOOOOOOOOOOOOOOOOOOO  ",
"  OOOOOOOOOOOOOOOOOOOOOOooOOOOOOooOOOOOOOOOOOOOOOOOOOOOOOOOOOO  ",
"  ooooooOOOOOOOOOOOOOOooOOOOOOOOOOOOooOOOOOOooOOOOOOOOOOOOOOoo  ",
"  ooooooOOOOOOOOOOOOOOooOOOOOOOOOOOOooOOOOOOooOOOOOOOOOOOOOOoo  ",
"  ooOOOOOOooooooooooooXXOOOOOOOOOOOOooooooooooooooooooooOOOOOO  ",
"  ooOOOOOOooooooooooooXXOOOOOOOOOOOOooooooooooooooooooooOOOOOO  ",
"  OOOOOOOOooooooOOOOOOooooooooooOOooOOOOOOooooOOOOOOooOOOOOOOO  ",
"  OOOOOOOOooooooOOOOOOooooooooooOOooOOOOOOooooOOOOOOooOOOOOOOO  ",
"  OOOOOOooOOOOooooooooXXooooooooXXXXOOOOOOXXOOOOOOOOooOOOOOOoo  ",
"  OOOOOOooOOOOooooooooXXooooooooXXXXOOOOOOXXOOOOOOOOooOOOOOOoo  ",
"  OOOOOOXXOOOOooooooooXXooooooooXXXXooooooXXOOOOOOoooooooooooo  ",
"  OOOOOOXXOOOOooooooooXXooooooooXXXXooooooXXOOOOOOoooooooooooo  ",
"  OOOOOOXXooooooooooooXXooooooooooooooooooooXXooooOOOOooOOOOOO  ",
"  OOOOOOXXooooooooooooXXooooooooooooooooooooXXooooOOOOooOOOOOO  ",
"  ooOOOOOOooooooXXXXXXXXXXooooooooooooooooooXXooooOOOOooOOOOOO  ",
"  ooOOOOOOooooooXXXXXXXXXXooooooooooooooooooXXooooOOOOooOOOOOO  ",
"  OOOOXXXXXXXXXXXXooooooooXXooooXXooooooXXXXXXXXXXXXXXooOOOOOO  ",
"  OOOOXXXXXXXXXXXXooooooooXXooooXXooooooXXXXXXXXXXXXXXooOOOOOO  ",
"  OOOOXXooooooXXXXooooooooXXXXooXXXXXXXXXXooooooXXooOOooooOOOO  ",
"  OOOOXXooooooXXXXooooooooXXXXooXXXXXXXXXXooooooXXooOOooooOOOO  ",
"  ooOOOOOOooooooXXXXXXXXXXXXXXXXXXXXXXXXXXooooooXXooOOooOOOOoo  ",
"  ooOOOOOOooooooXXXXXXXXXXXXXXXXXXXXXXXXXXooooooXXooOOooOOOOoo  ",
"  OOOOOOOOXXXXXXXXXXooooXXXXooooXXXXXXXX....XXXXXXooooooOOOOOO  ",
"  OOOOOOOOXXXXXXXXXXooooXXXXooooXXXXXXXX....XXXXXXooooooOOOOOO  ",
"  OOOOOOooooooooooXXooooooXXXXXXXXXXXXXXXX..XXooooXXooooOOOOOO  ",
"  OOOOOOooooooooooXXooooooXXXXXXXXXXXXXXXX..XXooooXXooooOOOOOO  ",
"  ooOOOOOOOOooooooooooooooXXXXXXXXXXXXooooooooooooooOOOOOOOOoo  ",
"  ooOOOOOOOOooooooooooooooXXXXXXXXXXXXooooooooooooooOOOOOOOOoo  ",
"  ooOOOOOOOOooooooooooooooXXXXXXXXXXXXooooooooooooooOOOOOOOOOO  ",
"  ooOOOOOOOOooooooooooooooXXXXXXXXXXXXooooooooooooooOOOOOOOOOO  ",
"  ooOOOOOOooXXXXXXXXXXXXXXXXXXXX..XXXXXXooooooooooooOOOOOOOOOO  ",
"  ooOOOOOOooXXXXXXXXXXXXXXXXXXXX..XXXXXXooooooooooooOOOOOOOOOO  ",
"  ooooOOooooooooooXXooooooooXXXXXXooooooXXooooooooooOOOOOOOOOO  ",
"  ooooOOooooooooooXXooooooooXXXXXXooooooXXooooooooooOOOOOOOOOO  ",
"  OOOOOOOOooooooooXXoooooooo....XXooooooooooXXXXXXXXooOOOOOOOO  ",
"  OOOOOOOOooooooooXXoooooooo....XXooooooooooXXXXXXXXooOOOOOOOO  ",
"  OOOOOOOOOOooooooXXXXXX..XXXXXXXXooooooooooXXooooooooOOOOOOOO  ",
"  OOOOOOOOOOooooooXXXXXX..XXXXXXXXooooooooooXXooooooooOOOOOOOO  ",
"  ooOOOOOOOOooooooooooXX..XXXXXXXXXXXXooooooXXooooooooOOOOOOOO  ",
"  ooOOOOOOOOooooooooooXX..XXXXXXXXXXXXooooooXXooooooooOOOOOOOO  ",
"  ooOOOOOOOOXXXXXXooooXXXXXXXXXXXXXXXXXXXXXXXXooooooooOOOOOOOO  ",
"  ooOOOOOOOOXXXXXXooooXXXXXXXXXXXXXXXXXXXXXXXXooooooooOOOOOOOO  ",
"  OOOOOOOOOOooooXXXXXXXX..XXXXXXXXooooooooooXXooooooooOOOOOOoo  ",
"  OOOOOOOOOOooooXXXXXXXX..XXXXXXXXooooooooooXXooooooooOOOOOOoo  ",
"  OOOOOOOOOOooooXXooooooooooooXXooooooooooooXXXXooooooooOOOOOO  ",
"  OOOOOOOOOOooooXXooooooooooooXXooooooooooooXXXXooooooooOOOOOO  ",
"  OOOOOOOOooooooooooooooooooooXXooooooooooooXXXXXXXXooOOOOOOOO  ",
"  OOOOOOOOooooooooooooooooooooXXooooooooooooXXXXXXXXooOOOOOOOO  ",
"  ooOOOOooooooXXooooooooooooooXXooooooooooooooooooooooOOOOOOOO  ",
"  ooOOOOooooooXXooooooooooooooXXooooooooooooooooooooooOOOOOOOO  ",
"  OOOOOOOOXXXXXXXXXXoooooooooo..ooooooooooooooooooooooOOOOOOoo  ",
"  OOOOOOOOXXXXXXXXXXoooooooooo..ooooooooooooooooooooooOOOOOOoo  ",
"  OOOOOOOOOOOOooOOOOOOOOOOOOOOOOooOOOOOOOOOOOOOOOOOOOOOOOOoooo  ",
"  OOOOOOOOOOOOooOOOOOOOOOOOOOOOOooOOOOOOOOOOOOOOOOOOOOOOOOoooo  ",
"  OOOOOOOOOOooOOOOOOOOXXOOOOOOOOOOooOOOOOOooOOOOOOOOOOOOOOOOOO  ",
"  OOOOOOOOOOooOOOOOOOOXXOOOOOOOOOOooOOOOOOooOOOOOOOOOOOOOOOOOO  ",
"                                                                ",
"                                                                "
};
